<svg xmlns="http://www.w3.org/2000/svg" width="546" viewBox="0 0 546 510" height="510" version="1.0"><defs><clipPath id="a"><path d="M 0.535156 0 L 545.464844 0 L 545.464844 509.003906 L 0.535156 509.003906 Z M 0.535156 0"/></clipPath><clipPath id="b"><path d="M 287.042969 388 L 545.289062 388 L 545.289062 401.871094 L 287.042969 401.871094 Z M 287.042969 388"/></clipPath><clipPath id="c"><path d="M 358 128.660156 L 492 128.660156 L 492 396 L 358 396 Z M 358 128.660156"/></clipPath></defs><g clip-path="url(#a)" fill="#FFF"><path d="M 0.535156 0 L 545.464844 0 L 545.464844 516.488281 L 0.535156 516.488281 Z M 0.535156 0"/><path d="M 0.535156 0 L 545.464844 0 L 545.464844 509.003906 L 0.535156 509.003906 Z M 0.535156 0"/><path d="M 0.535156 0 L 545.464844 0 L 545.464844 509.003906 L 0.535156 509.003906 Z M 0.535156 0"/></g><path fill="#F50000" d="M 322.542969 342.71875 L 319.464844 330.59375 C 314.007812 328.28125 308.4375 326.28125 302.757812 324.601562 L 302.367188 330.234375 L 300.792969 324.027344 C 293.753906 322.015625 288.960938 321.132812 288.960938 321.132812 C 288.960938 321.132812 295.433594 345.730469 309.007812 364.539062 L 324.820312 367.316406 L 312.535156 369.085938 C 314.246094 371.144531 316.078125 373.082031 318.03125 374.910156 C 337.777344 393.230469 359.765625 401.632812 367.148438 393.683594 C 374.53125 385.730469 364.511719 364.429688 344.765625 346.109375 C 338.644531 340.429688 330.957031 335.871094 323.257812 332.285156 Z M 322.542969 342.71875"/><path fill="#F50000" d="M 351.785156 329.546875 L 355.421875 317.578125 C 351.945312 312.777344 348.210938 308.191406 344.21875 303.8125 L 340.972656 308.4375 L 342.832031 302.308594 C 337.84375 296.949219 334.203125 293.714844 334.203125 293.714844 C 334.203125 293.714844 327.023438 318.117188 328.917969 341.234375 L 341.019531 351.78125 L 329.589844 346.949219 C 329.988281 349.59375 330.554688 352.203125 331.28125 354.773438 C 338.710938 380.660156 353.191406 399.21875 363.625 396.226562 C 374.054688 393.234375 376.488281 369.824219 369.058594 343.9375 C 366.753906 335.910156 362.53125 328.035156 357.796875 320.988281 Z M 351.785156 329.546875"/><g clip-path="url(#b)"><path fill="#3F3D56" d="M 545.25 395.273438 C 545.25 395.382812 545.199219 395.488281 545.09375 395.597656 C 544.992188 395.707031 544.835938 395.8125 544.628906 395.921875 C 544.421875 396.027344 544.164062 396.136719 543.851562 396.242188 C 543.542969 396.347656 543.183594 396.453125 542.769531 396.5625 C 542.359375 396.667969 541.894531 396.773438 541.382812 396.878906 C 540.867188 396.980469 540.304688 397.085938 539.691406 397.1875 C 539.078125 397.292969 538.417969 397.394531 537.703125 397.496094 C 536.992188 397.597656 536.234375 397.699219 535.425781 397.800781 C 534.617188 397.898438 533.761719 397.996094 532.855469 398.09375 C 531.953125 398.191406 531.003906 398.289062 530.007812 398.382812 C 529.011719 398.480469 527.972656 398.574219 526.886719 398.667969 C 525.800781 398.757812 524.667969 398.851562 523.496094 398.941406 C 522.320312 399.03125 521.105469 399.117188 519.847656 399.203125 C 518.589844 399.292969 517.289062 399.375 515.949219 399.460938 C 514.609375 399.542969 513.230469 399.625 511.8125 399.707031 C 510.390625 399.785156 508.9375 399.863281 507.441406 399.941406 C 505.949219 400.015625 504.417969 400.089844 502.855469 400.164062 C 501.289062 400.234375 499.6875 400.304688 498.054688 400.375 C 496.421875 400.445312 494.757812 400.511719 493.0625 400.574219 C 491.363281 400.636719 489.636719 400.699219 487.882812 400.761719 C 486.125 400.820312 484.339844 400.878906 482.527344 400.933594 C 480.714844 400.988281 478.878906 401.042969 477.015625 401.09375 C 475.152344 401.144531 473.265625 401.191406 471.355469 401.238281 C 469.445312 401.285156 467.515625 401.328125 465.566406 401.371094 C 463.613281 401.410156 461.640625 401.449219 459.652344 401.488281 C 457.664062 401.523438 455.660156 401.558594 453.636719 401.589844 C 451.617188 401.621094 449.582031 401.648438 447.53125 401.675781 C 445.480469 401.703125 443.421875 401.726562 441.347656 401.746094 C 439.277344 401.765625 437.195312 401.785156 435.105469 401.800781 C 433.015625 401.816406 430.921875 401.832031 428.820312 401.839844 C 426.714844 401.851562 424.609375 401.859375 422.5 401.863281 C 420.390625 401.871094 418.277344 401.871094 416.167969 401.871094 C 414.054688 401.871094 411.941406 401.871094 409.832031 401.863281 C 407.722656 401.859375 405.617188 401.851562 403.515625 401.839844 C 401.410156 401.832031 399.316406 401.816406 397.226562 401.800781 C 395.136719 401.785156 393.054688 401.765625 390.984375 401.746094 C 388.910156 401.726562 386.851562 401.703125 384.800781 401.675781 C 382.753906 401.648438 380.714844 401.621094 378.695312 401.589844 C 376.671875 401.558594 374.667969 401.523438 372.679688 401.488281 C 370.691406 401.449219 368.71875 401.410156 366.769531 401.371094 C 364.816406 401.328125 362.886719 401.285156 360.976562 401.238281 C 359.066406 401.191406 357.179688 401.144531 355.316406 401.09375 C 353.453125 401.042969 351.617188 400.988281 349.804688 400.933594 C 347.992188 400.878906 346.207031 400.820312 344.449219 400.761719 C 342.695312 400.699219 340.96875 400.636719 339.269531 400.574219 C 337.574219 400.511719 335.910156 400.445312 334.277344 400.375 C 332.644531 400.304688 331.042969 400.234375 329.480469 400.164062 C 327.914062 400.089844 326.382812 400.015625 324.890625 399.941406 C 323.394531 399.863281 321.941406 399.785156 320.519531 399.707031 C 319.101562 399.625 317.722656 399.542969 316.382812 399.460938 C 315.042969 399.375 313.742188 399.292969 312.484375 399.203125 C 311.226562 399.117188 310.011719 399.03125 308.835938 398.941406 C 307.664062 398.851562 306.535156 398.757812 305.449219 398.667969 C 304.359375 398.574219 303.320312 398.480469 302.324219 398.382812 C 301.328125 398.289062 300.378906 398.191406 299.476562 398.09375 C 298.574219 397.996094 297.714844 397.898438 296.910156 397.800781 C 296.101562 397.699219 295.339844 397.597656 294.628906 397.496094 C 293.917969 397.394531 293.253906 397.292969 292.640625 397.1875 C 292.027344 397.085938 291.464844 396.980469 290.949219 396.878906 C 290.4375 396.773438 289.976562 396.667969 289.5625 396.5625 C 289.152344 396.453125 288.789062 396.347656 288.480469 396.242188 C 288.167969 396.136719 287.910156 396.027344 287.703125 395.921875 C 287.496094 395.8125 287.339844 395.707031 287.238281 395.597656 C 287.132812 395.488281 287.082031 395.382812 287.082031 395.273438 C 287.082031 395.164062 287.132812 395.058594 287.238281 394.949219 C 287.339844 394.84375 287.496094 394.734375 287.703125 394.625 C 287.910156 394.519531 288.167969 394.410156 288.480469 394.304688 C 288.789062 394.199219 289.152344 394.09375 289.5625 393.984375 C 289.976562 393.878906 290.4375 393.773438 290.949219 393.671875 C 291.464844 393.566406 292.027344 393.460938 292.640625 393.359375 C 293.253906 393.253906 293.917969 393.152344 294.628906 393.050781 C 295.339844 392.949219 296.101562 392.847656 296.910156 392.746094 C 297.714844 392.648438 298.574219 392.550781 299.476562 392.453125 C 300.378906 392.355469 301.328125 392.257812 302.324219 392.164062 C 303.320312 392.066406 304.359375 391.972656 305.449219 391.878906 C 306.535156 391.789062 307.664062 391.695312 308.835938 391.605469 C 310.011719 391.515625 311.226562 391.429688 312.484375 391.34375 C 313.742188 391.253906 315.042969 391.171875 316.382812 391.085938 C 317.722656 391.003906 319.101562 390.921875 320.519531 390.839844 C 321.941406 390.761719 323.394531 390.683594 324.890625 390.605469 C 326.382812 390.53125 327.914062 390.457031 329.480469 390.382812 C 331.042969 390.3125 332.644531 390.242188 334.277344 390.171875 C 335.910156 390.105469 337.574219 390.039062 339.269531 389.972656 C 340.96875 389.910156 342.695312 389.847656 344.449219 389.785156 C 346.207031 389.726562 347.992188 389.667969 349.804688 389.613281 C 351.617188 389.558594 353.453125 389.503906 355.316406 389.453125 C 357.179688 389.402344 359.066406 389.355469 360.976562 389.308594 C 362.886719 389.261719 364.816406 389.21875 366.769531 389.175781 C 368.71875 389.136719 370.691406 389.097656 372.679688 389.058594 C 374.667969 389.023438 376.671875 388.988281 378.695312 388.957031 C 380.714844 388.925781 382.753906 388.898438 384.800781 388.871094 C 386.851562 388.84375 388.910156 388.820312 390.984375 388.800781 C 393.054688 388.78125 395.136719 388.761719 397.226562 388.746094 C 399.316406 388.730469 401.410156 388.714844 403.515625 388.707031 C 405.617188 388.695312 407.722656 388.6875 409.832031 388.683594 C 411.941406 388.675781 414.054688 388.675781 416.167969 388.675781 C 418.277344 388.675781 420.390625 388.675781 422.5 388.683594 C 424.609375 388.6875 426.714844 388.695312 428.820312 388.707031 C 430.921875 388.714844 433.015625 388.730469 435.105469 388.746094 C 437.195312 388.761719 439.277344 388.78125 441.347656 388.800781 C 443.421875 388.820312 445.480469 388.84375 447.53125 388.871094 C 449.582031 388.898438 451.617188 388.925781 453.636719 388.957031 C 455.660156 388.988281 457.664062 389.023438 459.652344 389.058594 C 461.640625 389.097656 463.613281 389.136719 465.566406 389.175781 C 467.515625 389.21875 469.445312 389.261719 471.355469 389.308594 C 473.265625 389.355469 475.152344 389.402344 477.015625 389.453125 C 478.878906 389.503906 480.714844 389.558594 482.527344 389.613281 C 484.339844 389.667969 486.125 389.726562 487.882812 389.785156 C 489.636719 389.847656 491.363281 389.910156 493.0625 389.972656 C 494.757812 390.039062 496.421875 390.105469 498.054688 390.171875 C 499.6875 390.242188 501.289062 390.3125 502.855469 390.382812 C 504.417969 390.457031 505.949219 390.53125 507.441406 390.605469 C 508.9375 390.683594 510.390625 390.761719 511.8125 390.839844 C 513.230469 390.921875 514.609375 391.003906 515.949219 391.085938 C 517.289062 391.171875 518.589844 391.253906 519.847656 391.34375 C 521.105469 391.429688 522.320312 391.515625 523.496094 391.605469 C 524.667969 391.695312 525.800781 391.789062 526.886719 391.878906 C 527.972656 391.972656 529.011719 392.066406 530.007812 392.164062 C 531.003906 392.257812 531.953125 392.355469 532.855469 392.453125 C 533.761719 392.550781 534.617188 392.648438 535.425781 392.746094 C 536.234375 392.847656 536.992188 392.949219 537.703125 393.050781 C 538.417969 393.152344 539.078125 393.253906 539.691406 393.359375 C 540.304688 393.460938 540.867188 393.566406 541.382812 393.671875 C 541.894531 393.773438 542.359375 393.878906 542.769531 393.984375 C 543.183594 394.09375 543.542969 394.199219 543.851562 394.304688 C 544.164062 394.410156 544.421875 394.519531 544.628906 394.625 C 544.835938 394.734375 544.992188 394.84375 545.09375 394.949219 C 545.199219 395.058594 545.25 395.164062 545.25 395.273438 Z M 545.25 395.273438"/></g><g clip-path="url(#c)"><path fill="#3F3D56" d="M 491.582031 192.066406 L 490.117188 192.066406 L 490.117188 151.902344 C 490.117188 151.144531 490.078125 150.382812 490.003906 149.625 C 489.929688 148.867188 489.816406 148.117188 489.667969 147.367188 C 489.519531 146.621094 489.335938 145.886719 489.113281 145.15625 C 488.894531 144.425781 488.636719 143.710938 488.347656 143.007812 C 488.054688 142.304688 487.730469 141.617188 487.371094 140.945312 C 487.011719 140.273438 486.621094 139.621094 486.199219 138.988281 C 485.773438 138.355469 485.320312 137.746094 484.839844 137.15625 C 484.355469 136.570312 483.84375 136.003906 483.304688 135.46875 C 482.769531 134.929688 482.203125 134.417969 481.617188 133.933594 C 481.027344 133.453125 480.417969 133 479.78125 132.578125 C 479.148438 132.152344 478.496094 131.761719 477.824219 131.402344 C 477.15625 131.042969 476.46875 130.71875 475.761719 130.429688 C 475.058594 130.136719 474.34375 129.878906 473.613281 129.660156 C 472.886719 129.4375 472.148438 129.253906 471.402344 129.105469 C 470.65625 128.957031 469.902344 128.84375 469.144531 128.769531 C 468.386719 128.695312 467.628906 128.660156 466.867188 128.660156 L 381.757812 128.660156 C 380.996094 128.660156 380.234375 128.695312 379.476562 128.769531 C 378.71875 128.84375 377.96875 128.957031 377.21875 129.105469 C 376.472656 129.253906 375.734375 129.4375 375.007812 129.660156 C 374.277344 129.878906 373.5625 130.136719 372.859375 130.429688 C 372.15625 130.71875 371.46875 131.042969 370.796875 131.402344 C 370.125 131.761719 369.472656 132.152344 368.839844 132.574219 C 368.207031 133 367.59375 133.453125 367.007812 133.933594 C 366.417969 134.417969 365.855469 134.929688 365.316406 135.46875 C 364.777344 136.003906 364.265625 136.570312 363.78125 137.15625 C 363.300781 137.746094 362.847656 138.355469 362.425781 138.988281 C 362 139.621094 361.609375 140.273438 361.25 140.945312 C 360.890625 141.617188 360.566406 142.304688 360.273438 143.007812 C 359.984375 143.710938 359.726562 144.425781 359.507812 145.15625 C 359.285156 145.882812 359.101562 146.621094 358.953125 147.367188 C 358.804688 148.117188 358.691406 148.867188 358.617188 149.625 C 358.542969 150.382812 358.503906 151.144531 358.503906 151.902344 L 358.503906 372.242188 C 358.503906 373.003906 358.542969 373.761719 358.617188 374.519531 C 358.691406 375.277344 358.804688 376.03125 358.953125 376.777344 C 359.101562 377.523438 359.285156 378.261719 359.507812 378.988281 C 359.726562 379.71875 359.984375 380.433594 360.273438 381.136719 C 360.566406 381.839844 360.890625 382.527344 361.25 383.199219 C 361.609375 383.871094 362 384.523438 362.425781 385.15625 C 362.847656 385.789062 363.300781 386.402344 363.78125 386.988281 C 364.265625 387.578125 364.777344 388.140625 365.316406 388.679688 C 365.855469 389.21875 366.417969 389.726562 367.007812 390.210938 C 367.59375 390.695312 368.207031 391.148438 368.839844 391.570312 C 369.472656 391.992188 370.125 392.382812 370.796875 392.742188 C 371.46875 393.101562 372.15625 393.425781 372.859375 393.71875 C 373.5625 394.007812 374.277344 394.265625 375.007812 394.488281 C 375.734375 394.707031 376.472656 394.890625 377.21875 395.039062 C 377.96875 395.191406 378.71875 395.300781 379.476562 395.375 C 380.234375 395.449219 380.996094 395.488281 381.757812 395.488281 L 466.867188 395.488281 C 467.628906 395.488281 468.386719 395.449219 469.144531 395.375 C 469.902344 395.300781 470.65625 395.1875 471.402344 395.039062 C 472.148438 394.890625 472.886719 394.707031 473.613281 394.488281 C 474.34375 394.265625 475.058594 394.007812 475.761719 393.71875 C 476.464844 393.425781 477.152344 393.101562 477.824219 392.742188 C 478.496094 392.382812 479.148438 391.992188 479.78125 391.570312 C 480.417969 391.148438 481.027344 390.695312 481.617188 390.210938 C 482.203125 389.726562 482.769531 389.21875 483.304688 388.679688 C 483.84375 388.140625 484.355469 387.578125 484.839844 386.988281 C 485.320312 386.398438 485.773438 385.789062 486.199219 385.15625 C 486.621094 384.523438 487.011719 383.871094 487.371094 383.199219 C 487.730469 382.527344 488.054688 381.839844 488.347656 381.136719 C 488.636719 380.433594 488.894531 379.71875 489.113281 378.988281 C 489.335938 378.261719 489.519531 377.523438 489.667969 376.777344 C 489.816406 376.03125 489.929688 375.277344 490.003906 374.519531 C 490.078125 373.761719 490.117188 373.003906 490.117188 372.242188 L 490.117188 220.65625 L 491.582031 220.65625 Z M 491.582031 192.066406"/></g><path fill="#FFF" d="M 485.167969 152.066406 L 485.167969 372.082031 C 485.167969 372.648438 485.140625 373.214844 485.082031 373.78125 C 485.027344 374.347656 484.945312 374.910156 484.832031 375.46875 C 484.722656 376.023438 484.585938 376.574219 484.417969 377.121094 C 484.253906 377.664062 484.0625 378.199219 483.84375 378.722656 C 483.628906 379.25 483.386719 379.761719 483.117188 380.265625 C 482.847656 380.765625 482.558594 381.253906 482.242188 381.726562 C 481.925781 382.199219 481.585938 382.652344 481.226562 383.09375 C 480.863281 383.53125 480.484375 383.953125 480.082031 384.355469 C 479.679688 384.757812 479.257812 385.140625 478.820312 385.5 C 478.378906 385.859375 477.921875 386.199219 477.449219 386.515625 C 476.976562 386.832031 476.488281 387.121094 475.988281 387.390625 C 475.488281 387.660156 474.972656 387.902344 474.449219 388.117188 C 473.921875 388.335938 473.386719 388.527344 472.84375 388.691406 C 472.300781 388.859375 471.75 388.996094 471.191406 389.105469 C 470.632812 389.21875 470.070312 389.300781 469.503906 389.355469 C 468.941406 389.414062 468.371094 389.441406 467.804688 389.441406 L 382.285156 389.441406 C 381.714844 389.441406 381.148438 389.414062 380.582031 389.355469 C 380.015625 389.300781 379.457031 389.21875 378.898438 389.105469 C 378.339844 388.996094 377.789062 388.859375 377.246094 388.691406 C 376.699219 388.527344 376.164062 388.335938 375.640625 388.117188 C 375.113281 387.902344 374.601562 387.660156 374.101562 387.390625 C 373.597656 387.121094 373.109375 386.832031 372.636719 386.515625 C 372.164062 386.199219 371.710938 385.859375 371.269531 385.5 C 370.832031 385.140625 370.410156 384.757812 370.007812 384.355469 C 369.605469 383.953125 369.222656 383.53125 368.863281 383.09375 C 368.503906 382.652344 368.164062 382.199219 367.847656 381.726562 C 367.53125 381.253906 367.238281 380.765625 366.972656 380.261719 C 366.703125 379.761719 366.460938 379.25 366.242188 378.722656 C 366.027344 378.199219 365.835938 377.664062 365.667969 377.121094 C 365.503906 376.574219 365.367188 376.023438 365.253906 375.46875 C 365.144531 374.910156 365.0625 374.347656 365.003906 373.78125 C 364.949219 373.214844 364.921875 372.648438 364.921875 372.082031 L 364.921875 152.066406 C 364.921875 151.496094 364.949219 150.929688 365.003906 150.363281 C 365.0625 149.796875 365.144531 149.238281 365.253906 148.679688 C 365.367188 148.121094 365.503906 147.570312 365.667969 147.027344 C 365.835938 146.484375 366.027344 145.949219 366.242188 145.421875 C 366.460938 144.898438 366.703125 144.382812 366.972656 143.882812 C 367.238281 143.382812 367.53125 142.894531 367.847656 142.421875 C 368.164062 141.949219 368.503906 141.492188 368.863281 141.054688 C 369.222656 140.613281 369.605469 140.191406 370.007812 139.789062 C 370.410156 139.386719 370.832031 139.007812 371.269531 138.648438 C 371.710938 138.285156 372.164062 137.949219 372.636719 137.632812 C 373.113281 137.316406 373.597656 137.023438 374.101562 136.757812 C 374.601562 136.488281 375.113281 136.246094 375.640625 136.027344 C 376.164062 135.808594 376.699219 135.617188 377.246094 135.453125 C 377.789062 135.289062 378.339844 135.152344 378.898438 135.039062 C 379.457031 134.929688 380.015625 134.84375 380.582031 134.789062 C 381.148438 134.734375 381.714844 134.707031 382.285156 134.707031 L 392.660156 134.707031 C 392.53125 135.019531 392.425781 135.335938 392.335938 135.660156 C 392.25 135.988281 392.179688 136.316406 392.132812 136.648438 C 392.085938 136.984375 392.058594 137.316406 392.050781 137.65625 C 392.046875 137.992188 392.058594 138.328125 392.09375 138.660156 C 392.128906 138.996094 392.183594 139.328125 392.257812 139.65625 C 392.335938 139.984375 392.429688 140.308594 392.542969 140.625 C 392.65625 140.941406 392.792969 141.25 392.945312 141.550781 C 393.097656 141.851562 393.265625 142.140625 393.453125 142.417969 C 393.640625 142.699219 393.847656 142.964844 394.066406 143.21875 C 394.289062 143.476562 394.523438 143.714844 394.773438 143.941406 C 395.023438 144.167969 395.285156 144.375 395.5625 144.570312 C 395.835938 144.761719 396.125 144.9375 396.421875 145.097656 C 396.71875 145.257812 397.023438 145.394531 397.339844 145.515625 C 397.652344 145.636719 397.972656 145.738281 398.300781 145.820312 C 398.625 145.902344 398.957031 145.964844 399.292969 146.003906 C 399.625 146.046875 399.960938 146.066406 400.296875 146.066406 L 449.058594 146.066406 C 449.394531 146.066406 449.730469 146.046875 450.0625 146.003906 C 450.398438 145.964844 450.726562 145.902344 451.054688 145.820312 C 451.382812 145.738281 451.703125 145.636719 452.015625 145.515625 C 452.332031 145.394531 452.636719 145.257812 452.933594 145.097656 C 453.230469 144.9375 453.519531 144.761719 453.792969 144.570312 C 454.070312 144.375 454.332031 144.167969 454.582031 143.941406 C 454.832031 143.714844 455.066406 143.476562 455.289062 143.21875 C 455.507812 142.964844 455.714844 142.699219 455.902344 142.417969 C 456.089844 142.140625 456.257812 141.851562 456.410156 141.550781 C 456.5625 141.25 456.695312 140.941406 456.8125 140.625 C 456.925781 140.308594 457.019531 139.984375 457.097656 139.65625 C 457.171875 139.328125 457.226562 138.996094 457.261719 138.660156 C 457.296875 138.328125 457.308594 137.992188 457.304688 137.65625 C 457.296875 137.316406 457.269531 136.984375 457.222656 136.648438 C 457.171875 136.316406 457.105469 135.988281 457.019531 135.660156 C 456.929688 135.335938 456.824219 135.019531 456.695312 134.707031 L 467.804688 134.707031 C 468.371094 134.707031 468.941406 134.734375 469.503906 134.789062 C 470.070312 134.84375 470.632812 134.929688 471.191406 135.039062 C 471.75 135.152344 472.300781 135.289062 472.84375 135.453125 C 473.386719 135.617188 473.921875 135.808594 474.449219 136.027344 C 474.972656 136.246094 475.488281 136.488281 475.988281 136.757812 C 476.492188 137.023438 476.976562 137.316406 477.449219 137.632812 C 477.921875 137.949219 478.378906 138.285156 478.820312 138.648438 C 479.257812 139.007812 479.679688 139.390625 480.082031 139.789062 C 480.484375 140.191406 480.867188 140.613281 481.226562 141.054688 C 481.585938 141.492188 481.925781 141.949219 482.242188 142.421875 C 482.558594 142.894531 482.847656 143.382812 483.117188 143.882812 C 483.386719 144.382812 483.628906 144.898438 483.84375 145.421875 C 484.0625 145.949219 484.253906 146.484375 484.417969 147.027344 C 484.585938 147.570312 484.722656 148.121094 484.832031 148.679688 C 484.945312 149.238281 485.027344 149.800781 485.082031 150.363281 C 485.140625 150.929688 485.167969 151.496094 485.167969 152.066406 Z M 485.167969 152.066406"/><path fill="#E6E6E6" d="M 485.167969 324.808594 L 485.167969 372.082031 C 485.167969 372.648438 485.140625 373.214844 485.082031 373.78125 C 485.027344 374.347656 484.945312 374.910156 484.832031 375.46875 C 484.722656 376.023438 484.585938 376.574219 484.417969 377.121094 C 484.253906 377.664062 484.0625 378.199219 483.84375 378.722656 C 483.628906 379.25 483.386719 379.761719 483.117188 380.265625 C 482.847656 380.765625 482.558594 381.253906 482.242188 381.726562 C 481.925781 382.199219 481.585938 382.652344 481.226562 383.09375 C 480.863281 383.53125 480.484375 383.953125 480.082031 384.355469 C 479.679688 384.757812 479.257812 385.140625 478.820312 385.5 C 478.378906 385.859375 477.921875 386.199219 477.449219 386.515625 C 476.976562 386.832031 476.488281 387.121094 475.988281 387.390625 C 475.488281 387.660156 474.972656 387.902344 474.449219 388.117188 C 473.921875 388.335938 473.386719 388.527344 472.84375 388.691406 C 472.300781 388.859375 471.75 388.996094 471.191406 389.105469 C 470.632812 389.21875 470.070312 389.300781 469.503906 389.355469 C 468.941406 389.414062 468.371094 389.441406 467.804688 389.441406 L 382.285156 389.441406 C 381.714844 389.441406 381.148438 389.414062 380.582031 389.355469 C 380.015625 389.300781 379.457031 389.21875 378.898438 389.105469 C 378.339844 388.996094 377.789062 388.859375 377.246094 388.691406 C 376.699219 388.527344 376.164062 388.335938 375.640625 388.117188 C 375.113281 387.902344 374.601562 387.660156 374.101562 387.390625 C 373.597656 387.121094 373.109375 386.832031 372.636719 386.515625 C 372.164062 386.199219 371.710938 385.859375 371.269531 385.5 C 370.832031 385.140625 370.410156 384.757812 370.007812 384.355469 C 369.605469 383.953125 369.222656 383.53125 368.863281 383.09375 C 368.503906 382.652344 368.164062 382.199219 367.847656 381.726562 C 367.53125 381.253906 367.238281 380.765625 366.972656 380.261719 C 366.703125 379.761719 366.460938 379.25 366.242188 378.722656 C 366.027344 378.199219 365.835938 377.664062 365.667969 377.121094 C 365.503906 376.574219 365.367188 376.023438 365.253906 375.46875 C 365.144531 374.910156 365.0625 374.347656 365.003906 373.78125 C 364.949219 373.214844 364.921875 372.648438 364.921875 372.082031 L 364.921875 329.417969 C 365.835938 328.347656 366.777344 327.296875 367.742188 326.273438 C 368.710938 325.25 369.707031 324.253906 370.722656 323.28125 C 371.742188 322.308594 372.789062 321.363281 373.855469 320.445312 C 374.925781 319.527344 376.015625 318.636719 377.128906 317.773438 C 378.246094 316.914062 379.378906 316.078125 380.539062 315.277344 C 381.695312 314.472656 382.871094 313.699219 384.070312 312.957031 C 385.265625 312.214844 386.484375 311.503906 387.71875 310.824219 C 388.949219 310.144531 390.203125 309.496094 391.46875 308.882812 C 392.738281 308.269531 394.019531 307.6875 395.316406 307.136719 C 396.613281 306.589844 397.925781 306.074219 399.25 305.59375 C 400.574219 305.113281 401.910156 304.667969 403.257812 304.253906 C 404.605469 303.84375 405.960938 303.464844 407.328125 303.125 C 408.695312 302.78125 410.070312 302.476562 411.453125 302.207031 C 412.835938 301.933594 414.226562 301.699219 415.621094 301.5 C 417.015625 301.300781 418.414062 301.140625 419.816406 301.011719 C 421.21875 300.886719 422.625 300.796875 424.035156 300.742188 C 425.441406 300.6875 426.847656 300.671875 428.257812 300.6875 C 429.667969 300.707031 431.074219 300.761719 432.480469 300.855469 C 433.886719 300.945312 435.289062 301.074219 436.6875 301.238281 C 438.085938 301.402344 439.480469 301.601562 440.871094 301.839844 C 442.257812 302.074219 443.640625 302.347656 445.015625 302.652344 C 446.390625 302.960938 447.757812 303.304688 449.113281 303.683594 C 450.472656 304.058594 451.820312 304.472656 453.15625 304.921875 C 454.492188 305.367188 455.8125 305.851562 457.125 306.367188 C 458.4375 306.882812 459.730469 307.433594 461.015625 308.015625 C 462.296875 308.597656 463.5625 309.214844 464.816406 309.863281 C 466.066406 310.511719 467.296875 311.191406 468.515625 311.90625 C 469.730469 312.617188 470.925781 313.359375 472.101562 314.132812 C 473.28125 314.910156 474.4375 315.710938 475.570312 316.546875 C 476.707031 317.378906 477.820312 318.242188 478.910156 319.132812 C 480.003906 320.027344 481.070312 320.945312 482.113281 321.890625 C 483.15625 322.839844 484.175781 323.8125 485.167969 324.808594 Z M 485.167969 324.808594"/><path fill="#E6E6E6" d="M 405.230469 316.070312 L 401.773438 316.070312 L 402.925781 248.570312 L 404.078125 248.570312 Z M 405.230469 316.070312"/><path fill="#E6E6E6" d="M 408.109375 206.074219 L 413.6875 197.457031 C 412.03125 192.882812 410.125 188.417969 407.964844 184.058594 L 404.355469 186.972656 L 407.210938 182.558594 C 404.492188 177.203125 402.347656 173.824219 402.347656 173.824219 C 402.347656 173.824219 391.160156 191.453125 387.421875 210.117188 L 394.582031 221.179688 L 386.65625 214.78125 C 386.371094 216.957031 386.226562 219.140625 386.21875 221.335938 C 386.21875 243.441406 393.441406 261.359375 402.347656 261.359375 C 411.257812 261.359375 418.476562 243.441406 418.476562 221.335938 C 418.476562 214.484375 416.925781 207.316406 414.789062 200.683594 Z M 408.109375 206.074219"/><path fill="#E6E6E6" d="M 385.171875 320.835938 L 383.496094 320.835938 L 384.054688 288.101562 L 384.613281 288.101562 Z M 385.171875 320.835938"/><path fill="#E6E6E6" d="M 386.566406 267.492188 L 389.273438 263.308594 C 388.46875 261.09375 387.546875 258.925781 386.496094 256.8125 L 384.746094 258.226562 L 386.132812 256.085938 C 384.8125 253.488281 383.773438 251.851562 383.773438 251.851562 C 383.773438 251.851562 378.347656 260.398438 376.535156 269.453125 L 380.007812 274.816406 L 376.164062 271.710938 C 376.027344 272.769531 375.957031 273.828125 375.953125 274.890625 C 375.953125 285.613281 379.453125 294.304688 383.773438 294.304688 C 388.09375 294.304688 391.597656 285.613281 391.597656 274.890625 C 391.597656 271.570312 390.84375 268.089844 389.808594 264.875 Z M 386.566406 267.492188"/><path fill="#E6E6E6" d="M 428.808594 320.835938 L 427.132812 320.835938 L 427.691406 288.101562 L 428.25 288.101562 Z M 428.808594 320.835938"/><path fill="#E6E6E6" d="M 430.207031 267.492188 L 432.914062 263.308594 C 432.109375 261.09375 431.183594 258.925781 430.136719 256.8125 L 428.386719 258.226562 L 429.773438 256.085938 C 428.453125 253.488281 427.414062 251.851562 427.414062 251.851562 C 427.414062 251.851562 421.988281 260.398438 420.171875 269.453125 L 423.644531 274.816406 L 419.800781 271.710938 C 419.664062 272.769531 419.59375 273.828125 419.589844 274.890625 C 419.589844 285.613281 423.09375 294.304688 427.414062 294.304688 C 431.734375 294.304688 435.234375 285.613281 435.234375 274.890625 C 435.234375 271.570312 434.484375 268.089844 433.445312 264.875 Z M 430.207031 267.492188"/><path fill="#E6E6E6" d="M 399.296875 196.925781 C 399.296875 197.933594 399.199219 198.9375 399 199.929688 C 398.804688 200.917969 398.511719 201.882812 398.125 202.816406 C 397.738281 203.75 397.261719 204.636719 396.703125 205.480469 C 396.140625 206.320312 395.5 207.097656 394.785156 207.8125 C 394.070312 208.527344 393.292969 209.164062 392.453125 209.726562 C 391.609375 210.289062 390.722656 210.761719 389.789062 211.152344 C 388.855469 211.539062 387.890625 211.828125 386.898438 212.027344 C 385.90625 212.222656 384.90625 212.324219 383.894531 212.324219 C 382.882812 212.324219 381.882812 212.222656 380.890625 212.027344 C 379.898438 211.828125 378.933594 211.539062 378 211.152344 C 377.066406 210.761719 376.179688 210.289062 375.339844 209.726562 C 374.496094 209.164062 373.71875 208.527344 373.003906 207.8125 C 372.289062 207.097656 371.652344 206.320312 371.089844 205.480469 C 370.527344 204.636719 370.050781 203.75 369.664062 202.816406 C 369.277344 201.882812 368.988281 200.917969 368.789062 199.929688 C 368.59375 198.9375 368.492188 197.933594 368.492188 196.925781 C 368.492188 195.914062 368.59375 194.910156 368.789062 193.917969 C 368.988281 192.929688 369.277344 191.964844 369.664062 191.03125 C 370.050781 190.097656 370.527344 189.210938 371.089844 188.367188 C 371.652344 187.527344 372.289062 186.75 373.003906 186.035156 C 373.71875 185.320312 374.496094 184.683594 375.339844 184.121094 C 376.179688 183.558594 377.066406 183.085938 378 182.699219 C 378.933594 182.308594 379.898438 182.019531 380.890625 181.820312 C 381.882812 181.625 382.882812 181.523438 383.894531 181.523438 C 384.90625 181.523438 385.90625 181.625 386.898438 181.820312 C 387.890625 182.019531 388.855469 182.308594 389.789062 182.699219 C 390.722656 183.085938 391.609375 183.558594 392.453125 184.121094 C 393.292969 184.683594 394.070312 185.320312 394.785156 186.035156 C 395.5 186.75 396.140625 187.527344 396.703125 188.367188 C 397.261719 189.210938 397.738281 190.097656 398.125 191.03125 C 398.511719 191.964844 398.804688 192.929688 399 193.917969 C 399.199219 194.910156 399.296875 195.914062 399.296875 196.925781 Z M 399.296875 196.925781"/><path fill="#2F2E41" d="M 439.589844 214.515625 L 467.703125 215.210938 L 471.484375 181.699219 L 439.589844 181.699219 Z M 439.589844 214.515625"/><path fill="#FFB8B8" d="M 432.585938 188.257812 L 424.828125 158.53125 C 424.828125 158.53125 426.972656 144.261719 432.152344 144.5 C 437.335938 144.734375 430.808594 158.449219 430.808594 158.449219 L 439.589844 184.125 Z M 432.585938 188.257812"/><path fill="#2F2E41" d="M 447.785156 262.738281 L 449 274.878906 C 449 274.878906 410.746094 300.984375 410.746094 311.910156 C 410.746094 322.835938 409.535156 357.4375 409.535156 357.4375 L 423.5 358.046875 L 424.714844 341.65625 C 424.714844 341.65625 427.75 323.445312 425.925781 316.765625 L 445.964844 301.589844 C 445.964844 301.589844 439.894531 308.875 441.105469 321.621094 C 442.320312 334.371094 439.285156 359.261719 439.285156 359.261719 L 453.859375 360.472656 C 453.859375 360.472656 455.679688 347.117188 456.285156 345.90625 C 456.894531 344.691406 459.929688 322.835938 456.894531 316.765625 L 481.789062 287.628906 C 481.789062 287.628906 490.289062 276.703125 481.789062 265.773438 L 476.929688 263.347656 Z M 447.785156 262.738281"/><path fill="#2F2E41" d="M 410.140625 355.011719 L 408.925781 362.902344 L 401.03125 381.722656 C 401.03125 381.722656 387.675781 388.398438 397.390625 389.613281 C 407.105469 390.828125 410.746094 388.398438 412.570312 385.363281 C 414.390625 382.328125 418.035156 377.472656 418.035156 377.472656 L 417.425781 390.21875 L 420.460938 390.21875 L 425.4375 372.808594 C 425.683594 371.972656 425.824219 371.125 425.867188 370.257812 C 425.910156 369.390625 425.847656 368.527344 425.6875 367.675781 C 425.523438 366.824219 425.261719 366 424.90625 365.210938 C 424.546875 364.417969 424.105469 363.679688 423.570312 362.992188 C 423.546875 362.964844 423.523438 362.933594 423.5 362.902344 C 421.070312 359.867188 422.285156 355.617188 422.285156 355.617188 Z M 410.140625 355.011719"/><path fill="#2F2E41" d="M 440.5 355.011719 L 439.285156 362.902344 L 431.390625 381.722656 C 431.390625 381.722656 418.035156 388.398438 427.75 389.613281 C 437.464844 390.828125 441.105469 388.398438 442.929688 385.363281 C 444.75 382.328125 448.394531 377.472656 448.394531 377.472656 L 447.785156 390.21875 L 450.820312 390.21875 L 455.796875 372.808594 C 456.042969 371.972656 456.183594 371.125 456.226562 370.257812 C 456.265625 369.390625 456.207031 368.527344 456.042969 367.675781 C 455.882812 366.824219 455.621094 366 455.265625 365.210938 C 454.90625 364.417969 454.460938 363.679688 453.929688 362.992188 C 453.90625 362.964844 453.882812 362.933594 453.859375 362.902344 C 451.429688 359.867188 452.644531 355.617188 452.644531 355.617188 Z M 440.5 355.011719"/><path fill="#FFB8B8" d="M 467.214844 188.074219 C 467.214844 188.871094 467.136719 189.660156 466.984375 190.441406 C 466.828125 191.222656 466.597656 191.980469 466.292969 192.71875 C 465.988281 193.453125 465.613281 194.15625 465.167969 194.816406 C 464.726562 195.480469 464.222656 196.09375 463.660156 196.65625 C 463.09375 197.222656 462.480469 197.722656 461.820312 198.167969 C 461.15625 198.609375 460.457031 198.984375 459.71875 199.289062 C 458.984375 199.59375 458.222656 199.824219 457.441406 199.980469 C 456.660156 200.136719 455.871094 200.214844 455.070312 200.214844 C 454.273438 200.214844 453.484375 200.136719 452.703125 199.980469 C 451.921875 199.824219 451.160156 199.59375 450.425781 199.289062 C 449.6875 198.984375 448.988281 198.609375 448.324219 198.167969 C 447.664062 197.722656 447.050781 197.222656 446.484375 196.65625 C 445.921875 196.09375 445.417969 195.480469 444.976562 194.816406 C 444.53125 194.15625 444.15625 193.453125 443.851562 192.71875 C 443.546875 191.980469 443.316406 191.222656 443.160156 190.441406 C 443.007812 189.660156 442.929688 188.871094 442.929688 188.074219 C 442.929688 187.273438 443.007812 186.484375 443.160156 185.703125 C 443.316406 184.921875 443.546875 184.164062 443.851562 183.425781 C 444.15625 182.691406 444.53125 181.988281 444.976562 181.328125 C 445.417969 180.664062 445.921875 180.050781 446.484375 179.488281 C 447.050781 178.921875 447.664062 178.421875 448.324219 177.976562 C 448.988281 177.535156 449.6875 177.160156 450.425781 176.855469 C 451.160156 176.550781 451.921875 176.320312 452.703125 176.164062 C 453.484375 176.007812 454.273438 175.929688 455.070312 175.929688 C 455.871094 175.929688 456.660156 176.007812 457.441406 176.164062 C 458.222656 176.320312 458.984375 176.550781 459.71875 176.855469 C 460.457031 177.160156 461.15625 177.535156 461.820312 177.976562 C 462.480469 178.421875 463.09375 178.921875 463.660156 179.488281 C 464.222656 180.050781 464.726562 180.664062 465.167969 181.328125 C 465.613281 181.988281 465.988281 182.691406 466.292969 183.425781 C 466.597656 184.164062 466.828125 184.921875 466.984375 185.703125 C 467.136719 186.484375 467.214844 187.273438 467.214844 188.074219 Z M 467.214844 188.074219"/><path fill="#FFB8B8" d="M 454.464844 198.390625 L 459.929688 211.140625 L 470.859375 202.640625 C 470.859375 202.640625 464.179688 193.535156 464.179688 192.320312 Z M 454.464844 198.390625"/><path fill="#F50000" d="M 455.679688 205.675781 L 458.269531 207.269531 C 458.269531 207.269531 466.640625 202.832031 468.75 199.703125 C 468.75 199.703125 476.324219 197.179688 479.359375 203.25 C 482.394531 209.320312 477.539062 251.207031 477.539062 251.207031 C 477.539062 251.207031 480.574219 255.453125 479.964844 257.277344 C 479.359375 259.097656 481.789062 262.132812 481.789062 262.132812 L 481.789062 265.773438 C 481.789062 265.773438 447.179688 266.382812 447.179688 263.347656 L 447.179688 253.632812 L 443.535156 252.417969 C 443.535156 252.417969 439.894531 260.3125 438.679688 259.703125 C 437.464844 259.097656 431.390625 254.242188 431.390625 254.242188 C 431.390625 254.242188 441.105469 222.066406 446.570312 216.605469 L 453.25 205.070312 Z M 455.679688 205.675781"/><path fill="#F50000" d="M 454.464844 206.285156 C 454.464844 206.285156 453.25 203.855469 451.429688 203.25 C 449.609375 202.640625 440.5 189.894531 440.5 189.894531 L 441.714844 183.214844 L 429.570312 181.394531 C 429.570312 181.394531 430.175781 188.070312 432.605469 192.320312 C 435.035156 196.570312 448.394531 218.425781 448.394531 218.425781 L 455.070312 206.285156 Z M 454.464844 206.285156"/><path fill="#FFB8B8" d="M 463.875 254.542969 L 456.589844 276.398438 C 456.589844 276.398438 441.410156 293.394531 449.910156 293.394531 C 458.410156 293.394531 462.660156 278.21875 462.660156 278.21875 L 472.984375 256.363281 Z M 463.875 254.542969"/><path fill="#2F2E41" d="M 440.519531 188.25 C 450.242188 184.351562 459.832031 183.519531 469.171875 188.25 L 469.171875 180.394531 C 469.171875 180.058594 469.136719 179.726562 469.074219 179.394531 C 469.007812 179.066406 468.910156 178.746094 468.78125 178.4375 C 468.652344 178.125 468.496094 177.832031 468.308594 177.550781 C 468.121094 177.273438 467.910156 177.011719 467.671875 176.777344 C 467.433594 176.539062 467.175781 176.328125 466.898438 176.140625 C 466.617188 175.953125 466.324219 175.796875 466.011719 175.667969 C 465.703125 175.539062 465.382812 175.441406 465.050781 175.375 C 464.722656 175.308594 464.390625 175.277344 464.054688 175.277344 L 444.5625 175.277344 C 444.296875 175.277344 444.03125 175.304688 443.773438 175.355469 C 443.511719 175.40625 443.257812 175.484375 443.011719 175.585938 C 442.769531 175.6875 442.535156 175.8125 442.316406 175.957031 C 442.09375 176.105469 441.890625 176.273438 441.703125 176.460938 C 441.515625 176.648438 441.347656 176.851562 441.199219 177.074219 C 441.050781 177.292969 440.925781 177.527344 440.824219 177.773438 C 440.722656 178.019531 440.648438 178.269531 440.59375 178.53125 C 440.542969 178.792969 440.519531 179.054688 440.519531 179.320312 Z M 440.519531 188.25"/><path fill="#F50000" d="M 471.464844 205.070312 C 471.464844 205.070312 477.007812 200.378906 480.003906 205.757812 C 483.003906 211.140625 481.179688 234.207031 480.574219 237.242188 C 479.964844 240.277344 475.714844 259.097656 475.714844 259.097656 L 461.144531 256.0625 C 461.144531 256.0625 459.929688 247.5625 463.574219 248.171875 Z M 471.464844 205.070312"/><path fill="#2F2E41" d="M 477.507812 199.851562 C 474.769531 198.347656 473.492188 194.96875 473.402344 191.84375 C 473.3125 188.71875 474.070312 185.625 474.128906 182.5 C 474.160156 181.859375 474.105469 181.222656 473.964844 180.59375 C 473.738281 179.8125 473.386719 179.089844 472.917969 178.425781 C 469.351562 172.964844 463.15625 169.121094 456.628906 169.0625 C 455.679688 169.050781 454.757812 169.21875 453.875 169.570312 C 453.199219 169.839844 452.976562 169.804688 452.847656 170.632812 C 451.253906 170.109375 449.675781 170.160156 448.117188 170.785156 C 446.609375 171.398438 445.230469 172.21875 443.976562 173.25 C 443.234375 173.800781 442.535156 174.40625 441.882812 175.0625 C 438.433594 178.632812 437.640625 184.140625 438.640625 189.003906 C 438.964844 190.585938 437.40625 192.113281 436.117188 193.082031 C 434.824219 194.054688 433.335938 194.945312 432.703125 196.429688 C 432.09375 197.859375 432.429688 199.492188 432.304688 201.042969 C 432.238281 201.773438 432.070312 202.480469 431.800781 203.164062 C 431.535156 203.851562 431.179688 204.484375 430.734375 205.070312 C 430.289062 205.65625 429.773438 206.167969 429.1875 206.609375 C 428.597656 207.050781 427.960938 207.402344 427.273438 207.667969 C 427.558594 208.007812 427.914062 208.253906 428.332031 208.398438 C 428.75 208.546875 429.179688 208.578125 429.617188 208.488281 C 430.523438 208.296875 431.335938 207.910156 432.054688 207.328125 C 433.390625 206.339844 434.523438 205.15625 435.453125 203.777344 C 436.378906 202.402344 437.050781 200.910156 437.46875 199.300781 C 437.847656 201.023438 437.699219 202.800781 437.6875 204.5625 C 437.71875 206.550781 437.363281 208.46875 436.621094 210.3125 C 436.246094 211.230469 435.722656 212.054688 435.058594 212.789062 C 434.390625 213.519531 433.621094 214.117188 432.742188 214.578125 C 434.433594 215.40625 436.300781 214.808594 437.734375 213.585938 C 439.167969 212.363281 440.011719 210.589844 440.605469 208.800781 C 441.574219 205.859375 441.957031 202.84375 441.753906 199.753906 C 442.539062 201.078125 443.074219 202.496094 443.351562 204.011719 C 443.632812 205.527344 443.640625 207.042969 443.375 208.5625 C 443.101562 210.109375 442.570312 211.5625 441.785156 212.925781 C 441 214.289062 440.007812 215.476562 438.808594 216.492188 C 443.054688 216.453125 447.058594 215.445312 450.816406 213.464844 C 451.789062 213.027344 452.609375 212.394531 453.28125 211.570312 C 454.472656 209.914062 454.191406 207.660156 453.855469 205.648438 C 453.59375 204.058594 455.578125 201.761719 454.441406 200.621094 C 454.089844 200.273438 453.667969 200.09375 453.175781 200.078125 C 449.710938 199.742188 446.5 198.003906 444.652344 195.050781 C 443.355469 192.984375 442.496094 190.625 442.496094 188.417969 C 442.496094 187.984375 442.519531 187.550781 442.566406 187.121094 C 442.613281 186.691406 442.683594 186.261719 442.773438 185.839844 C 442.867188 185.417969 442.984375 185 443.121094 184.589844 C 443.257812 184.179688 443.417969 183.777344 443.597656 183.382812 C 443.78125 182.988281 443.980469 182.605469 444.203125 182.234375 C 444.425781 181.863281 444.667969 181.503906 444.929688 181.15625 C 445.1875 180.808594 445.46875 180.480469 445.765625 180.164062 C 446.058594 179.847656 446.371094 179.546875 446.703125 179.265625 C 447.03125 178.984375 447.375 178.71875 447.730469 178.472656 C 448.085938 178.230469 448.457031 178.003906 448.839844 177.796875 C 449.21875 177.589844 449.609375 177.40625 450.011719 177.242188 C 450.414062 177.078125 450.824219 176.9375 451.238281 176.820312 C 451.65625 176.699219 452.078125 176.601562 452.503906 176.527344 C 452.929688 176.453125 453.359375 176.402344 453.792969 176.375 C 454.226562 176.347656 454.660156 176.34375 455.09375 176.359375 C 455.523438 176.378906 455.957031 176.421875 456.382812 176.488281 C 456.8125 176.550781 457.238281 176.640625 457.65625 176.75 C 458.074219 176.859375 458.488281 176.992188 458.890625 177.148438 C 459.296875 177.304688 459.691406 177.480469 460.078125 177.675781 C 460.460938 177.875 460.835938 178.09375 461.199219 178.328125 C 461.5625 178.566406 461.910156 178.824219 462.246094 179.097656 C 462.578125 179.375 462.898438 179.667969 463.199219 179.976562 C 463.503906 180.285156 463.789062 180.613281 464.058594 180.953125 C 464.328125 181.292969 464.574219 181.644531 464.804688 182.011719 C 465.035156 182.378906 465.246094 182.757812 465.433594 183.148438 C 465.625 183.539062 465.792969 183.9375 465.9375 184.34375 C 466.085938 184.753906 466.210938 185.167969 466.3125 185.589844 C 466.414062 186.007812 466.492188 186.433594 466.546875 186.863281 C 466.601562 187.292969 466.636719 187.726562 466.644531 188.160156 C 466.65625 188.59375 466.640625 189.023438 466.605469 189.457031 C 466.566406 189.886719 466.507812 190.316406 466.421875 190.742188 C 466.339844 191.167969 466.234375 191.585938 466.105469 192 C 465.695312 193.339844 465.402344 194.703125 465.226562 196.09375 C 465.019531 197.703125 464.695312 199.289062 464.246094 200.851562 C 463.386719 203.847656 461.925781 206.90625 459.230469 208.472656 C 460.136719 208.96875 461.183594 208.988281 462.210938 209.101562 C 465.597656 209.476562 469.160156 209.394531 472.226562 207.90625 C 475.292969 206.417969 477.726562 203.253906 477.507812 199.851562 Z M 477.507812 199.851562"/><path d="M 466.914062 221.15625 L 463.742188 247.238281 L 463.875 222.371094 Z M 466.914062 221.15625" fill-opacity=".2"/><path d="M 477.324219 251.953125 L 476.019531 260.007812 L 479.054688 261.222656 Z M 477.324219 251.953125" fill-opacity=".2"/></svg>