<svg xmlns="http://www.w3.org/2000/svg" width="750" viewBox="0 0 750 375" height="375" version="1.0"><defs><clipPath id="a"><path d="M 492.289062 306 L 740.539062 306 L 740.539062 318.75 L 492.289062 318.75 Z M 492.289062 306"/></clipPath><clipPath id="b"><path d="M 560 56.25 L 689 56.25 L 689 313 L 560 313 Z M 560 56.25"/></clipPath></defs><path fill="#FFF" d="M-75 -37.5H825V412.5H-75z"/><path fill="#FFF" d="M-75 -37.5H825V412.5H-75z"/><path fill="#FFF" d="M-75 -37.5H825V412.5H-75z"/><path fill="#F50000" d="M 526.40625 261.914062 L 523.449219 250.265625 C 518.203125 248.042969 512.851562 246.125 507.386719 244.507812 L 507.015625 249.921875 L 505.5 243.957031 C 498.730469 242.027344 494.125 241.175781 494.125 241.175781 C 494.125 241.175781 500.347656 264.8125 513.394531 282.878906 L 528.597656 285.546875 L 516.789062 287.25 C 518.429688 289.226562 520.191406 291.089844 522.070312 292.84375 C 541.050781 310.445312 562.191406 318.519531 569.289062 310.878906 C 576.386719 303.238281 566.753906 282.777344 547.773438 265.171875 C 541.886719 259.714844 534.496094 255.335938 527.097656 251.890625 Z M 526.40625 261.914062"/><path fill="#F50000" d="M 554.523438 249.261719 L 558.015625 237.761719 C 554.675781 233.148438 551.085938 228.742188 547.246094 224.535156 L 544.125 228.976562 L 545.914062 223.089844 C 541.117188 217.941406 537.617188 214.832031 537.617188 214.832031 C 537.617188 214.832031 530.714844 238.28125 532.539062 260.488281 L 544.171875 270.625 L 533.179688 265.980469 C 533.566406 268.519531 534.109375 271.027344 534.808594 273.496094 C 541.953125 298.371094 555.871094 316.203125 565.902344 313.324219 C 575.929688 310.449219 578.269531 287.957031 571.125 263.085938 C 568.910156 255.375 564.847656 247.808594 560.296875 241.039062 Z M 554.523438 249.261719"/><g clip-path="url(#a)"><path fill="#3F3D56" d="M 740.507812 312.410156 C 740.507812 312.511719 740.457031 312.617188 740.355469 312.71875 C 740.257812 312.824219 740.109375 312.925781 739.910156 313.03125 C 739.710938 313.132812 739.460938 313.238281 739.164062 313.339844 C 738.867188 313.441406 738.519531 313.542969 738.121094 313.644531 C 737.726562 313.75 737.28125 313.847656 736.789062 313.949219 C 736.292969 314.050781 735.753906 314.152344 735.164062 314.25 C 734.574219 314.347656 733.9375 314.449219 733.253906 314.546875 C 732.570312 314.644531 731.839844 314.738281 731.0625 314.835938 C 730.285156 314.933594 729.460938 315.027344 728.59375 315.121094 C 727.722656 315.214844 726.8125 315.308594 725.855469 315.398438 C 724.898438 315.488281 723.894531 315.578125 722.851562 315.667969 C 721.808594 315.757812 720.722656 315.84375 719.59375 315.933594 C 718.464844 316.019531 717.296875 316.101562 716.085938 316.1875 C 714.875 316.269531 713.628906 316.351562 712.339844 316.433594 C 711.050781 316.511719 709.722656 316.589844 708.359375 316.667969 C 706.996094 316.746094 705.597656 316.820312 704.160156 316.894531 C 702.722656 316.964844 701.253906 317.039062 699.75 317.109375 C 698.246094 317.175781 696.707031 317.246094 695.136719 317.3125 C 693.566406 317.375 691.964844 317.441406 690.335938 317.503906 C 688.703125 317.5625 687.042969 317.625 685.355469 317.679688 C 683.667969 317.738281 681.953125 317.792969 680.210938 317.847656 C 678.46875 317.902344 676.703125 317.953125 674.910156 318 C 673.121094 318.050781 671.304688 318.097656 669.46875 318.140625 C 667.632812 318.1875 665.777344 318.226562 663.902344 318.265625 C 662.023438 318.308594 660.132812 318.34375 658.21875 318.378906 C 656.304688 318.414062 654.378906 318.445312 652.433594 318.476562 C 650.492188 318.507812 648.535156 318.535156 646.566406 318.558594 C 644.59375 318.585938 642.613281 318.609375 640.621094 318.628906 C 638.628906 318.648438 636.628906 318.667969 634.621094 318.679688 C 632.613281 318.695312 630.597656 318.710938 628.574219 318.71875 C 626.554688 318.730469 624.53125 318.738281 622.5 318.742188 C 620.472656 318.746094 618.445312 318.75 616.414062 318.75 C 614.382812 318.75 612.351562 318.746094 610.324219 318.742188 C 608.296875 318.738281 606.269531 318.730469 604.25 318.71875 C 602.226562 318.710938 600.214844 318.695312 598.203125 318.679688 C 596.195312 318.667969 594.195312 318.648438 592.203125 318.628906 C 590.210938 318.609375 588.230469 318.585938 586.261719 318.558594 C 584.289062 318.535156 582.332031 318.507812 580.390625 318.476562 C 578.445312 318.445312 576.519531 318.414062 574.605469 318.378906 C 572.695312 318.34375 570.800781 318.308594 568.925781 318.265625 C 567.046875 318.226562 565.191406 318.1875 563.355469 318.140625 C 561.519531 318.097656 559.707031 318.050781 557.914062 318 C 556.125 317.953125 554.359375 317.902344 552.617188 317.847656 C 550.875 317.792969 549.160156 317.738281 547.46875 317.679688 C 545.78125 317.625 544.121094 317.5625 542.488281 317.503906 C 540.859375 317.441406 539.257812 317.375 537.6875 317.3125 C 536.117188 317.246094 534.582031 317.175781 533.078125 317.109375 C 531.570312 317.039062 530.101562 316.964844 528.664062 316.894531 C 527.230469 316.820312 525.828125 316.746094 524.464844 316.667969 C 523.101562 316.589844 521.773438 316.511719 520.488281 316.433594 C 519.199219 316.351562 517.949219 316.269531 516.738281 316.1875 C 515.53125 316.101562 514.359375 316.019531 513.230469 315.933594 C 512.105469 315.847656 511.019531 315.757812 509.972656 315.667969 C 508.929688 315.578125 507.929688 315.488281 506.972656 315.398438 C 506.015625 315.308594 505.101562 315.214844 504.234375 315.121094 C 503.363281 315.027344 502.542969 314.933594 501.765625 314.835938 C 500.988281 314.738281 500.257812 314.644531 499.574219 314.546875 C 498.886719 314.449219 498.25 314.347656 497.660156 314.25 C 497.074219 314.152344 496.53125 314.050781 496.039062 313.949219 C 495.542969 313.847656 495.097656 313.75 494.703125 313.644531 C 494.308594 313.542969 493.960938 313.441406 493.660156 313.339844 C 493.363281 313.238281 493.113281 313.132812 492.917969 313.03125 C 492.71875 312.925781 492.566406 312.824219 492.46875 312.71875 C 492.367188 312.617188 492.320312 312.511719 492.320312 312.410156 C 492.320312 312.304688 492.367188 312.203125 492.46875 312.097656 C 492.566406 311.996094 492.71875 311.890625 492.917969 311.789062 C 493.113281 311.683594 493.363281 311.582031 493.660156 311.480469 C 493.960938 311.375 494.308594 311.273438 494.703125 311.171875 C 495.097656 311.070312 495.542969 310.96875 496.039062 310.867188 C 496.53125 310.769531 497.074219 310.667969 497.660156 310.570312 C 498.25 310.46875 498.886719 310.371094 499.574219 310.273438 C 500.257812 310.175781 500.988281 310.078125 501.765625 309.984375 C 502.542969 309.886719 503.363281 309.792969 504.234375 309.699219 C 505.101562 309.605469 506.015625 309.511719 506.972656 309.421875 C 507.929688 309.328125 508.929688 309.238281 509.972656 309.148438 C 511.019531 309.0625 512.105469 308.972656 513.230469 308.886719 C 514.359375 308.800781 515.53125 308.714844 516.738281 308.632812 C 517.949219 308.550781 519.199219 308.46875 520.488281 308.386719 C 521.773438 308.308594 523.101562 308.226562 524.464844 308.152344 C 525.828125 308.074219 527.230469 308 528.664062 307.925781 C 530.101562 307.851562 531.570312 307.78125 533.078125 307.710938 C 534.582031 307.640625 536.117188 307.574219 537.6875 307.507812 C 539.257812 307.441406 540.859375 307.378906 542.488281 307.316406 C 544.121094 307.253906 545.78125 307.195312 547.46875 307.136719 C 549.160156 307.078125 550.875 307.023438 552.617188 306.972656 C 554.359375 306.917969 556.125 306.867188 557.914062 306.816406 C 559.707031 306.769531 561.519531 306.722656 563.355469 306.675781 C 565.191406 306.632812 567.046875 306.589844 568.925781 306.550781 C 570.800781 306.511719 572.695312 306.472656 574.605469 306.4375 C 576.519531 306.40625 578.445312 306.371094 580.390625 306.339844 C 582.332031 306.3125 584.289062 306.285156 586.261719 306.257812 C 588.230469 306.234375 590.210938 306.210938 592.203125 306.191406 C 594.195312 306.171875 596.195312 306.152344 598.203125 306.136719 C 600.214844 306.121094 602.226562 306.109375 604.25 306.097656 C 606.269531 306.089844 608.296875 306.082031 610.324219 306.078125 C 612.351562 306.070312 614.382812 306.070312 616.414062 306.070312 C 618.445312 306.070312 620.472656 306.070312 622.5 306.078125 C 624.53125 306.082031 626.554688 306.089844 628.574219 306.097656 C 630.597656 306.109375 632.613281 306.121094 634.621094 306.136719 C 636.628906 306.152344 638.628906 306.171875 640.621094 306.191406 C 642.613281 306.210938 644.59375 306.234375 646.566406 306.257812 C 648.535156 306.285156 650.492188 306.3125 652.433594 306.339844 C 654.378906 306.371094 656.304688 306.40625 658.21875 306.4375 C 660.132812 306.472656 662.023438 306.511719 663.902344 306.550781 C 665.777344 306.589844 667.632812 306.632812 669.46875 306.675781 C 671.304688 306.722656 673.121094 306.769531 674.910156 306.816406 C 676.703125 306.867188 678.46875 306.917969 680.210938 306.972656 C 681.953125 307.023438 683.667969 307.078125 685.355469 307.136719 C 687.042969 307.195312 688.703125 307.253906 690.335938 307.316406 C 691.964844 307.378906 693.566406 307.441406 695.136719 307.507812 C 696.707031 307.574219 698.246094 307.640625 699.75 307.710938 C 701.253906 307.78125 702.722656 307.851562 704.160156 307.925781 C 705.597656 308 706.996094 308.074219 708.359375 308.152344 C 709.722656 308.226562 711.050781 308.308594 712.339844 308.386719 C 713.628906 308.46875 714.875 308.550781 716.085938 308.632812 C 717.296875 308.714844 718.464844 308.800781 719.59375 308.886719 C 720.722656 308.972656 721.808594 309.0625 722.851562 309.148438 C 723.894531 309.238281 724.898438 309.328125 725.855469 309.421875 C 726.8125 309.511719 727.722656 309.605469 728.59375 309.699219 C 729.460938 309.792969 730.285156 309.886719 731.0625 309.984375 C 731.839844 310.078125 732.570312 310.175781 733.253906 310.273438 C 733.9375 310.371094 734.574219 310.46875 735.164062 310.570312 C 735.753906 310.667969 736.292969 310.769531 736.789062 310.867188 C 737.28125 310.96875 737.726562 311.070312 738.121094 311.171875 C 738.519531 311.273438 738.867188 311.375 739.164062 311.480469 C 739.460938 311.582031 739.710938 311.683594 739.910156 311.789062 C 740.109375 311.890625 740.257812 311.996094 740.355469 312.097656 C 740.457031 312.203125 740.507812 312.304688 740.507812 312.410156 Z M 740.507812 312.410156"/></g><g clip-path="url(#b)"><path fill="#3F3D56" d="M 688.914062 117.171875 L 687.503906 117.171875 L 687.503906 78.582031 C 687.503906 77.851562 687.46875 77.121094 687.398438 76.394531 C 687.324219 75.667969 687.21875 74.945312 687.074219 74.226562 C 686.933594 73.507812 686.753906 72.800781 686.542969 72.101562 C 686.328125 71.402344 686.082031 70.710938 685.804688 70.035156 C 685.523438 69.359375 685.210938 68.699219 684.863281 68.054688 C 684.519531 67.410156 684.144531 66.785156 683.738281 66.175781 C 683.332031 65.566406 682.894531 64.980469 682.429688 64.414062 C 681.964844 63.851562 681.476562 63.308594 680.957031 62.792969 C 680.441406 62.273438 679.898438 61.785156 679.332031 61.320312 C 678.765625 60.855469 678.179688 60.421875 677.570312 60.015625 C 676.960938 59.609375 676.335938 59.230469 675.6875 58.886719 C 675.042969 58.542969 674.382812 58.230469 673.707031 57.949219 C 673.03125 57.671875 672.339844 57.425781 671.640625 57.210938 C 670.941406 57 670.230469 56.820312 669.511719 56.679688 C 668.796875 56.535156 668.070312 56.429688 667.34375 56.359375 C 666.613281 56.285156 665.882812 56.25 665.152344 56.25 L 583.332031 56.25 C 582.601562 56.25 581.871094 56.285156 581.140625 56.359375 C 580.414062 56.429688 579.691406 56.535156 578.972656 56.679688 C 578.253906 56.820312 577.542969 57 576.84375 57.210938 C 576.144531 57.425781 575.457031 57.671875 574.777344 57.949219 C 574.101562 58.230469 573.441406 58.542969 572.796875 58.886719 C 572.152344 59.230469 571.523438 59.609375 570.914062 60.015625 C 570.304688 60.421875 569.71875 60.855469 569.152344 61.320312 C 568.585938 61.785156 568.046875 62.273438 567.527344 62.792969 C 567.011719 63.308594 566.519531 63.851562 566.054688 64.414062 C 565.589844 64.980469 565.15625 65.566406 564.746094 66.175781 C 564.339844 66.785156 563.964844 67.410156 563.621094 68.054688 C 563.273438 68.699219 562.960938 69.359375 562.683594 70.035156 C 562.402344 70.710938 562.15625 71.402344 561.941406 72.101562 C 561.730469 72.800781 561.554688 73.507812 561.410156 74.226562 C 561.265625 74.945312 561.160156 75.667969 561.089844 76.394531 C 561.015625 77.121094 560.980469 77.851562 560.980469 78.582031 L 560.980469 290.28125 C 560.980469 291.011719 561.015625 291.742188 561.089844 292.46875 C 561.160156 293.199219 561.265625 293.921875 561.410156 294.636719 C 561.554688 295.355469 561.730469 296.0625 561.941406 296.765625 C 562.15625 297.464844 562.402344 298.152344 562.683594 298.828125 C 562.960938 299.503906 563.273438 300.164062 563.621094 300.808594 C 563.964844 301.453125 564.339844 302.082031 564.746094 302.6875 C 565.15625 303.296875 565.589844 303.882812 566.054688 304.449219 C 566.519531 305.015625 567.011719 305.554688 567.527344 306.074219 C 568.046875 306.589844 568.585938 307.082031 569.152344 307.546875 C 569.71875 308.007812 570.304688 308.445312 570.914062 308.851562 C 571.523438 309.257812 572.152344 309.632812 572.796875 309.976562 C 573.441406 310.324219 574.101562 310.636719 574.777344 310.914062 C 575.457031 311.195312 576.144531 311.441406 576.84375 311.652344 C 577.542969 311.867188 578.253906 312.042969 578.972656 312.1875 C 579.691406 312.328125 580.414062 312.4375 581.140625 312.507812 C 581.871094 312.578125 582.601562 312.613281 583.332031 312.613281 L 665.152344 312.613281 C 665.882812 312.613281 666.613281 312.578125 667.34375 312.507812 C 668.070312 312.4375 668.796875 312.328125 669.511719 312.1875 C 670.230469 312.042969 670.941406 311.867188 671.640625 311.652344 C 672.339844 311.441406 673.03125 311.195312 673.707031 310.914062 C 674.382812 310.636719 675.042969 310.324219 675.6875 309.976562 C 676.335938 309.632812 676.960938 309.257812 677.570312 308.851562 C 678.179688 308.445312 678.765625 308.007812 679.332031 307.546875 C 679.898438 307.082031 680.441406 306.589844 680.957031 306.074219 C 681.476562 305.554688 681.964844 305.015625 682.429688 304.449219 C 682.894531 303.882812 683.332031 303.296875 683.738281 302.6875 C 684.144531 302.082031 684.519531 301.453125 684.863281 300.808594 C 685.210938 300.164062 685.523438 299.503906 685.800781 298.828125 C 686.082031 298.152344 686.328125 297.464844 686.542969 296.765625 C 686.753906 296.0625 686.933594 295.355469 687.074219 294.636719 C 687.21875 293.921875 687.324219 293.199219 687.398438 292.46875 C 687.46875 291.742188 687.503906 291.011719 687.503906 290.28125 L 687.503906 144.640625 L 688.914062 144.640625 Z M 688.914062 117.171875"/></g><path fill="#FFF" d="M 682.746094 78.738281 L 682.746094 290.125 C 682.746094 290.671875 682.71875 291.21875 682.667969 291.761719 C 682.613281 292.304688 682.53125 292.84375 682.425781 293.378906 C 682.320312 293.914062 682.1875 294.445312 682.027344 294.96875 C 681.867188 295.488281 681.683594 296.003906 681.476562 296.507812 C 681.265625 297.011719 681.035156 297.507812 680.777344 297.988281 C 680.519531 298.46875 680.238281 298.9375 679.933594 299.390625 C 679.628906 299.847656 679.304688 300.285156 678.957031 300.707031 C 678.609375 301.128906 678.242188 301.535156 677.855469 301.917969 C 677.472656 302.304688 677.066406 302.671875 676.644531 303.019531 C 676.222656 303.367188 675.78125 303.691406 675.328125 303.992188 C 674.875 304.296875 674.40625 304.578125 673.921875 304.835938 C 673.441406 305.09375 672.945312 305.328125 672.441406 305.535156 C 671.9375 305.746094 671.421875 305.929688 670.898438 306.085938 C 670.375 306.246094 669.847656 306.378906 669.308594 306.484375 C 668.773438 306.589844 668.234375 306.671875 667.691406 306.726562 C 667.144531 306.777344 666.601562 306.804688 666.054688 306.804688 L 583.839844 306.804688 C 583.292969 306.804688 582.75 306.777344 582.207031 306.726562 C 581.660156 306.671875 581.121094 306.589844 580.585938 306.484375 C 580.046875 306.378906 579.519531 306.246094 578.996094 306.085938 C 578.472656 305.929688 577.957031 305.746094 577.453125 305.535156 C 576.949219 305.324219 576.453125 305.09375 575.972656 304.835938 C 575.492188 304.578125 575.023438 304.296875 574.566406 303.992188 C 574.113281 303.691406 573.675781 303.367188 573.25 303.019531 C 572.828125 302.671875 572.425781 302.304688 572.039062 301.917969 C 571.652344 301.535156 571.285156 301.128906 570.9375 300.707031 C 570.589844 300.285156 570.265625 299.847656 569.960938 299.390625 C 569.660156 298.9375 569.378906 298.46875 569.121094 297.988281 C 568.863281 297.507812 568.628906 297.011719 568.417969 296.507812 C 568.210938 296.003906 568.027344 295.488281 567.867188 294.96875 C 567.707031 294.445312 567.574219 293.914062 567.46875 293.378906 C 567.363281 292.84375 567.28125 292.304688 567.230469 291.761719 C 567.175781 291.21875 567.148438 290.671875 567.148438 290.125 L 567.148438 78.738281 C 567.148438 78.191406 567.175781 77.648438 567.230469 77.105469 C 567.28125 76.5625 567.363281 76.019531 567.46875 75.484375 C 567.578125 74.949219 567.707031 74.421875 567.867188 73.898438 C 568.027344 73.375 568.210938 72.859375 568.417969 72.355469 C 568.628906 71.851562 568.863281 71.359375 569.121094 70.875 C 569.378906 70.394531 569.660156 69.925781 569.960938 69.472656 C 570.265625 69.019531 570.589844 68.582031 570.9375 68.160156 C 571.285156 67.734375 571.652344 67.332031 572.039062 66.945312 C 572.425781 66.558594 572.828125 66.191406 573.253906 65.847656 C 573.675781 65.5 574.113281 65.175781 574.566406 64.871094 C 575.023438 64.566406 575.492188 64.289062 575.972656 64.03125 C 576.453125 63.773438 576.949219 63.539062 577.453125 63.328125 C 577.957031 63.121094 578.472656 62.9375 578.996094 62.777344 C 579.519531 62.621094 580.046875 62.488281 580.585938 62.378906 C 581.121094 62.273438 581.660156 62.195312 582.207031 62.140625 C 582.75 62.085938 583.292969 62.058594 583.839844 62.058594 L 593.816406 62.058594 C 593.691406 62.359375 593.589844 62.664062 593.503906 62.976562 C 593.421875 63.289062 593.355469 63.605469 593.308594 63.925781 C 593.261719 64.246094 593.238281 64.570312 593.230469 64.894531 C 593.226562 65.214844 593.238281 65.539062 593.269531 65.859375 C 593.304688 66.183594 593.355469 66.5 593.429688 66.816406 C 593.5 67.132812 593.59375 67.441406 593.703125 67.746094 C 593.8125 68.050781 593.941406 68.347656 594.089844 68.636719 C 594.234375 68.925781 594.398438 69.203125 594.578125 69.472656 C 594.757812 69.738281 594.957031 69.996094 595.167969 70.242188 C 595.378906 70.484375 595.605469 70.714844 595.847656 70.933594 C 596.085938 71.148438 596.339844 71.351562 596.605469 71.535156 C 596.871094 71.722656 597.144531 71.890625 597.429688 72.042969 C 597.714844 72.195312 598.011719 72.332031 598.3125 72.445312 C 598.613281 72.5625 598.921875 72.660156 599.238281 72.738281 C 599.550781 72.816406 599.867188 72.878906 600.191406 72.917969 C 600.511719 72.957031 600.835938 72.976562 601.160156 72.976562 L 648.03125 72.976562 C 648.355469 72.976562 648.679688 72.957031 649 72.917969 C 649.320312 72.878906 649.640625 72.816406 649.953125 72.738281 C 650.265625 72.660156 650.574219 72.5625 650.878906 72.445312 C 651.179688 72.332031 651.472656 72.195312 651.757812 72.042969 C 652.046875 71.890625 652.320312 71.722656 652.585938 71.535156 C 652.851562 71.351562 653.101562 71.148438 653.34375 70.933594 C 653.585938 70.714844 653.808594 70.484375 654.023438 70.242188 C 654.234375 69.996094 654.429688 69.738281 654.613281 69.472656 C 654.792969 69.203125 654.957031 68.925781 655.101562 68.636719 C 655.25 68.347656 655.378906 68.050781 655.488281 67.746094 C 655.597656 67.441406 655.6875 67.132812 655.761719 66.816406 C 655.832031 66.5 655.886719 66.183594 655.917969 65.859375 C 655.953125 65.539062 655.964844 65.214844 655.960938 64.894531 C 655.953125 64.570312 655.925781 64.246094 655.882812 63.925781 C 655.835938 63.605469 655.769531 63.289062 655.683594 62.976562 C 655.601562 62.664062 655.496094 62.359375 655.375 62.058594 L 666.054688 62.058594 C 666.601562 62.058594 667.144531 62.085938 667.691406 62.140625 C 668.234375 62.195312 668.773438 62.273438 669.308594 62.378906 C 669.847656 62.488281 670.375 62.621094 670.898438 62.777344 C 671.421875 62.9375 671.9375 63.121094 672.441406 63.328125 C 672.945312 63.539062 673.441406 63.773438 673.921875 64.03125 C 674.40625 64.289062 674.875 64.566406 675.328125 64.871094 C 675.78125 65.175781 676.222656 65.5 676.644531 65.847656 C 677.066406 66.191406 677.472656 66.558594 677.859375 66.945312 C 678.242188 67.332031 678.609375 67.734375 678.957031 68.160156 C 679.304688 68.582031 679.628906 69.019531 679.933594 69.472656 C 680.238281 69.925781 680.519531 70.394531 680.777344 70.878906 C 681.035156 71.359375 681.265625 71.851562 681.476562 72.355469 C 681.683594 72.863281 681.871094 73.375 682.027344 73.898438 C 682.1875 74.421875 682.320312 74.949219 682.425781 75.484375 C 682.53125 76.019531 682.613281 76.5625 682.667969 77.105469 C 682.71875 77.648438 682.746094 78.191406 682.746094 78.738281 Z M 682.746094 78.738281"/><path fill="#E6E6E6" d="M 682.746094 244.710938 L 682.746094 290.125 C 682.746094 290.671875 682.71875 291.21875 682.667969 291.761719 C 682.613281 292.304688 682.53125 292.84375 682.425781 293.378906 C 682.320312 293.914062 682.1875 294.445312 682.027344 294.96875 C 681.867188 295.488281 681.683594 296.003906 681.476562 296.507812 C 681.265625 297.011719 681.035156 297.507812 680.777344 297.988281 C 680.519531 298.46875 680.238281 298.9375 679.933594 299.390625 C 679.628906 299.847656 679.304688 300.285156 678.957031 300.707031 C 678.609375 301.128906 678.242188 301.535156 677.855469 301.917969 C 677.472656 302.304688 677.066406 302.671875 676.644531 303.019531 C 676.222656 303.367188 675.78125 303.691406 675.328125 303.992188 C 674.875 304.296875 674.40625 304.578125 673.921875 304.835938 C 673.441406 305.09375 672.945312 305.328125 672.441406 305.535156 C 671.9375 305.746094 671.421875 305.929688 670.898438 306.085938 C 670.375 306.246094 669.847656 306.378906 669.308594 306.484375 C 668.773438 306.589844 668.234375 306.671875 667.691406 306.726562 C 667.144531 306.777344 666.601562 306.804688 666.054688 306.804688 L 583.839844 306.804688 C 583.292969 306.804688 582.75 306.777344 582.207031 306.726562 C 581.660156 306.671875 581.121094 306.589844 580.585938 306.484375 C 580.046875 306.378906 579.519531 306.246094 578.996094 306.085938 C 578.472656 305.929688 577.957031 305.746094 577.453125 305.535156 C 576.949219 305.324219 576.453125 305.09375 575.972656 304.835938 C 575.492188 304.578125 575.023438 304.296875 574.566406 303.992188 C 574.113281 303.691406 573.675781 303.367188 573.25 303.019531 C 572.828125 302.671875 572.425781 302.304688 572.039062 301.917969 C 571.652344 301.535156 571.285156 301.128906 570.9375 300.707031 C 570.589844 300.285156 570.265625 299.847656 569.960938 299.390625 C 569.660156 298.9375 569.378906 298.46875 569.121094 297.988281 C 568.863281 297.507812 568.628906 297.011719 568.417969 296.507812 C 568.210938 296.003906 568.027344 295.488281 567.867188 294.96875 C 567.707031 294.445312 567.574219 293.914062 567.46875 293.378906 C 567.363281 292.84375 567.28125 292.304688 567.230469 291.761719 C 567.175781 291.21875 567.148438 290.671875 567.148438 290.125 L 567.148438 249.136719 C 568.027344 248.105469 568.929688 247.101562 569.863281 246.117188 C 570.792969 245.132812 571.746094 244.175781 572.726562 243.238281 C 573.707031 242.304688 574.710938 241.398438 575.738281 240.515625 C 576.765625 239.632812 577.8125 238.777344 578.886719 237.949219 C 579.957031 237.121094 581.046875 236.320312 582.160156 235.550781 C 583.273438 234.777344 584.40625 234.035156 585.558594 233.320312 C 586.707031 232.609375 587.875 231.925781 589.0625 231.273438 C 590.25 230.621094 591.453125 229.996094 592.671875 229.40625 C 593.890625 228.816406 595.121094 228.257812 596.371094 227.730469 C 597.617188 227.203125 598.878906 226.707031 600.152344 226.246094 C 601.421875 225.785156 602.707031 225.355469 604.003906 224.960938 C 605.296875 224.5625 606.601562 224.203125 607.917969 223.875 C 609.230469 223.546875 610.554688 223.25 611.882812 222.992188 C 613.210938 222.730469 614.546875 222.503906 615.886719 222.3125 C 617.226562 222.121094 618.574219 221.964844 619.921875 221.84375 C 621.269531 221.722656 622.621094 221.636719 623.976562 221.585938 C 625.328125 221.53125 626.683594 221.515625 628.039062 221.535156 C 629.390625 221.550781 630.746094 221.605469 632.097656 221.691406 C 633.449219 221.78125 634.796875 221.902344 636.140625 222.0625 C 637.488281 222.21875 638.828125 222.410156 640.164062 222.636719 C 641.496094 222.863281 642.824219 223.125 644.148438 223.421875 C 645.46875 223.71875 646.78125 224.046875 648.085938 224.410156 C 649.390625 224.773438 650.6875 225.167969 651.972656 225.601562 C 653.253906 226.03125 654.527344 226.492188 655.789062 226.988281 C 657.046875 227.484375 658.292969 228.011719 659.527344 228.574219 C 660.761719 229.132812 661.976562 229.726562 663.179688 230.347656 C 664.382812 230.972656 665.570312 231.625 666.738281 232.308594 C 667.90625 232.992188 669.054688 233.707031 670.1875 234.453125 C 671.320312 235.195312 672.429688 235.96875 673.523438 236.769531 C 674.613281 237.570312 675.683594 238.398438 676.730469 239.257812 C 677.78125 240.113281 678.808594 240.996094 679.808594 241.90625 C 680.8125 242.8125 681.792969 243.75 682.746094 244.710938 Z M 682.746094 244.710938"/><path fill="#E6E6E6" d="M 605.898438 236.3125 L 602.574219 236.3125 L 603.683594 171.460938 L 604.789062 171.460938 Z M 605.898438 236.3125"/><path fill="#E6E6E6" d="M 608.667969 130.632812 L 614.03125 122.347656 C 612.4375 117.957031 610.605469 113.664062 608.527344 109.476562 L 605.058594 112.277344 L 607.804688 108.035156 C 605.1875 102.890625 603.128906 99.644531 603.128906 99.644531 C 603.128906 99.644531 592.371094 116.582031 588.777344 134.515625 L 595.660156 145.144531 L 588.042969 138.996094 C 587.769531 141.085938 587.632812 143.183594 587.625 145.292969 C 587.625 166.53125 594.566406 183.75 603.128906 183.75 C 611.691406 183.75 618.632812 166.53125 618.632812 145.292969 C 618.632812 138.710938 617.144531 131.820312 615.085938 125.449219 Z M 608.667969 130.632812"/><path fill="#E6E6E6" d="M 586.617188 240.890625 L 585.003906 240.890625 L 585.542969 209.4375 L 586.078125 209.4375 Z M 586.617188 240.890625"/><path fill="#E6E6E6" d="M 587.957031 189.636719 L 590.558594 185.621094 C 589.789062 183.488281 588.898438 181.410156 587.890625 179.378906 L 586.207031 180.734375 L 587.539062 178.679688 C 586.273438 176.183594 585.273438 174.609375 585.273438 174.609375 C 585.273438 174.609375 580.054688 182.824219 578.3125 191.519531 L 581.652344 196.675781 L 577.957031 193.695312 C 577.824219 194.707031 577.757812 195.726562 577.753906 196.75 C 577.753906 207.046875 581.121094 215.398438 585.273438 215.398438 C 589.425781 215.398438 592.792969 207.046875 592.792969 196.75 C 592.792969 193.554688 592.070312 190.214844 591.070312 187.125 Z M 587.957031 189.636719"/><path fill="#E6E6E6" d="M 628.566406 240.890625 L 626.957031 240.890625 L 627.492188 209.4375 L 628.03125 209.4375 Z M 628.566406 240.890625"/><path fill="#E6E6E6" d="M 629.910156 189.636719 L 632.511719 185.621094 C 631.738281 183.488281 630.851562 181.410156 629.84375 179.378906 L 628.160156 180.734375 L 629.492188 178.679688 C 628.222656 176.183594 627.226562 174.609375 627.226562 174.609375 C 627.226562 174.609375 622.007812 182.824219 620.265625 191.519531 L 623.601562 196.675781 L 619.90625 193.695312 C 619.777344 194.707031 619.707031 195.726562 619.707031 196.75 C 619.707031 207.046875 623.070312 215.398438 627.226562 215.398438 C 631.378906 215.398438 634.746094 207.046875 634.746094 196.75 C 634.746094 193.554688 634.023438 190.214844 633.023438 187.125 Z M 629.910156 189.636719"/><path fill="#E6E6E6" d="M 600.195312 121.839844 C 600.195312 122.808594 600.101562 123.773438 599.910156 124.722656 C 599.722656 125.675781 599.441406 126.601562 599.070312 127.5 C 598.695312 128.398438 598.242188 129.25 597.699219 130.058594 C 597.160156 130.867188 596.546875 131.613281 595.859375 132.300781 C 595.171875 132.988281 594.421875 133.601562 593.617188 134.140625 C 592.808594 134.679688 591.953125 135.136719 591.054688 135.507812 C 590.15625 135.878906 589.230469 136.160156 588.277344 136.347656 C 587.324219 136.539062 586.363281 136.632812 585.390625 136.632812 C 584.417969 136.632812 583.453125 136.539062 582.5 136.347656 C 581.546875 136.160156 580.621094 135.878906 579.722656 135.507812 C 578.824219 135.136719 577.972656 134.679688 577.164062 134.140625 C 576.355469 133.601562 575.605469 132.988281 574.917969 132.300781 C 574.230469 131.613281 573.617188 130.867188 573.078125 130.058594 C 572.539062 129.25 572.082031 128.398438 571.710938 127.5 C 571.335938 126.601562 571.058594 125.675781 570.867188 124.722656 C 570.675781 123.773438 570.582031 122.808594 570.582031 121.839844 C 570.582031 120.867188 570.675781 119.90625 570.867188 118.953125 C 571.058594 118 571.335938 117.074219 571.710938 116.175781 C 572.082031 115.277344 572.539062 114.425781 573.078125 113.617188 C 573.617188 112.8125 574.230469 112.0625 574.917969 111.375 C 575.605469 110.691406 576.355469 110.078125 577.164062 109.535156 C 577.972656 108.996094 578.824219 108.542969 579.722656 108.167969 C 580.621094 107.796875 581.546875 107.515625 582.5 107.328125 C 583.453125 107.136719 584.417969 107.042969 585.390625 107.042969 C 586.363281 107.042969 587.324219 107.136719 588.277344 107.328125 C 589.230469 107.515625 590.15625 107.796875 591.054688 108.167969 C 591.953125 108.542969 592.808594 108.996094 593.617188 109.535156 C 594.421875 110.078125 595.171875 110.691406 595.859375 111.375 C 596.546875 112.0625 597.160156 112.8125 597.699219 113.617188 C 598.242188 114.425781 598.695312 115.277344 599.070312 116.175781 C 599.441406 117.074219 599.722656 118 599.910156 118.953125 C 600.101562 119.90625 600.195312 120.867188 600.195312 121.839844 Z M 600.195312 121.839844"/><path fill="#2F2E41" d="M 638.929688 138.738281 L 665.957031 139.410156 L 669.59375 107.210938 L 638.929688 107.210938 Z M 638.929688 138.738281"/><path fill="#FFB8B8" d="M 632.195312 113.511719 L 624.742188 84.953125 C 624.742188 84.953125 626.800781 71.242188 631.78125 71.46875 C 636.765625 71.695312 630.488281 84.871094 630.488281 84.871094 L 638.929688 109.542969 Z M 632.195312 113.511719"/><path fill="#2F2E41" d="M 646.808594 185.074219 L 647.976562 196.738281 C 647.976562 196.738281 611.203125 221.816406 611.203125 232.316406 C 611.203125 242.8125 610.035156 276.058594 610.035156 276.058594 L 623.460938 276.640625 L 624.628906 260.894531 C 624.628906 260.894531 627.546875 243.398438 625.796875 236.980469 L 645.058594 222.398438 C 645.058594 222.398438 639.222656 229.398438 640.390625 241.648438 C 641.558594 253.894531 638.636719 277.808594 638.636719 277.808594 L 652.648438 278.972656 C 652.648438 278.972656 654.398438 266.144531 654.980469 264.976562 C 655.566406 263.808594 658.484375 242.8125 655.566406 236.980469 L 679.496094 208.984375 C 679.496094 208.984375 687.671875 198.488281 679.496094 187.988281 L 674.828125 185.65625 Z M 646.808594 185.074219"/><path fill="#2F2E41" d="M 610.621094 273.726562 L 609.453125 281.308594 L 601.863281 299.386719 C 601.863281 299.386719 589.023438 305.804688 598.363281 306.96875 C 607.703125 308.136719 611.203125 305.804688 612.953125 302.886719 C 614.707031 299.972656 618.207031 295.304688 618.207031 295.304688 L 617.625 307.554688 L 620.542969 307.554688 L 625.328125 290.824219 C 625.5625 290.023438 625.699219 289.207031 625.738281 288.371094 C 625.777344 287.539062 625.71875 286.714844 625.5625 285.894531 C 625.40625 285.074219 625.160156 284.285156 624.816406 283.523438 C 624.472656 282.761719 624.042969 282.054688 623.53125 281.394531 C 623.507812 281.367188 623.484375 281.335938 623.460938 281.308594 C 621.125 278.390625 622.292969 274.308594 622.292969 274.308594 Z M 610.621094 273.726562"/><path fill="#2F2E41" d="M 639.804688 273.726562 L 638.636719 281.308594 L 631.050781 299.386719 C 631.050781 299.386719 618.207031 305.804688 627.546875 306.96875 C 636.886719 308.136719 640.390625 305.804688 642.140625 302.886719 C 643.890625 299.972656 647.394531 295.304688 647.394531 295.304688 L 646.808594 307.554688 L 649.730469 307.554688 L 654.511719 290.824219 C 654.746094 290.023438 654.882812 289.207031 654.921875 288.371094 C 654.964844 287.539062 654.90625 286.714844 654.75 285.894531 C 654.59375 285.074219 654.34375 284.285156 654 283.523438 C 653.65625 282.761719 653.230469 282.054688 652.71875 281.394531 C 652.695312 281.367188 652.671875 281.335938 652.648438 281.308594 C 650.3125 278.390625 651.480469 274.308594 651.480469 274.308594 Z M 639.804688 273.726562"/><path fill="#FFB8B8" d="M 665.488281 113.332031 C 665.488281 114.097656 665.414062 114.859375 665.265625 115.609375 C 665.117188 116.359375 664.894531 117.089844 664.601562 117.796875 C 664.308594 118.503906 663.949219 119.175781 663.523438 119.8125 C 663.097656 120.453125 662.613281 121.039062 662.070312 121.582031 C 661.527344 122.125 660.9375 122.605469 660.300781 123.03125 C 659.664062 123.457031 658.992188 123.816406 658.28125 124.109375 C 657.574219 124.402344 656.84375 124.625 656.09375 124.773438 C 655.339844 124.925781 654.582031 125 653.816406 125 C 653.046875 125 652.289062 124.925781 651.539062 124.773438 C 650.785156 124.625 650.054688 124.402344 649.347656 124.109375 C 648.640625 123.816406 647.964844 123.457031 647.328125 123.03125 C 646.691406 122.605469 646.101562 122.125 645.558594 121.582031 C 645.019531 121.039062 644.535156 120.453125 644.109375 119.8125 C 643.683594 119.175781 643.324219 118.503906 643.027344 117.796875 C 642.734375 117.089844 642.515625 116.359375 642.363281 115.609375 C 642.214844 114.859375 642.140625 114.097656 642.140625 113.332031 C 642.140625 112.566406 642.214844 111.808594 642.363281 111.058594 C 642.515625 110.308594 642.734375 109.578125 643.027344 108.871094 C 643.324219 108.160156 643.683594 107.488281 644.109375 106.851562 C 644.535156 106.214844 645.019531 105.625 645.558594 105.085938 C 646.101562 104.542969 646.691406 104.058594 647.328125 103.632812 C 647.964844 103.210938 648.640625 102.851562 649.347656 102.554688 C 650.054688 102.261719 650.785156 102.042969 651.539062 101.894531 C 652.289062 101.742188 653.046875 101.667969 653.816406 101.667969 C 654.582031 101.667969 655.339844 101.742188 656.09375 101.894531 C 656.84375 102.042969 657.574219 102.261719 658.28125 102.554688 C 658.992188 102.851562 659.664062 103.210938 660.300781 103.632812 C 660.9375 104.058594 661.527344 104.542969 662.070312 105.085938 C 662.613281 105.625 663.097656 106.214844 663.523438 106.851562 C 663.949219 107.488281 664.308594 108.160156 664.601562 108.871094 C 664.894531 109.578125 665.117188 110.308594 665.265625 111.058594 C 665.414062 111.808594 665.488281 112.566406 665.488281 113.332031 Z M 665.488281 113.332031"/><path fill="#FFB8B8" d="M 653.230469 123.25 L 658.484375 135.496094 L 668.992188 127.332031 C 668.992188 127.332031 662.570312 118.582031 662.570312 117.417969 Z M 653.230469 123.25"/><path fill="#F50000" d="M 654.398438 130.246094 L 656.890625 131.777344 C 656.890625 131.777344 664.933594 127.515625 666.964844 124.507812 C 666.964844 124.507812 674.246094 122.082031 677.164062 127.914062 C 680.082031 133.746094 675.410156 173.992188 675.410156 173.992188 C 675.410156 173.992188 678.332031 178.074219 677.746094 179.824219 C 677.164062 181.574219 679.496094 184.488281 679.496094 184.488281 L 679.496094 187.988281 C 679.496094 187.988281 646.226562 188.570312 646.226562 185.65625 L 646.226562 176.324219 L 642.722656 175.15625 C 642.722656 175.15625 639.222656 182.738281 638.054688 182.15625 C 636.886719 181.574219 631.050781 176.90625 631.050781 176.90625 C 631.050781 176.90625 640.390625 145.996094 645.644531 140.746094 L 652.0625 129.664062 Z M 654.398438 130.246094"/><path fill="#F50000" d="M 653.230469 130.832031 C 653.230469 130.832031 652.0625 128.496094 650.3125 127.914062 C 648.5625 127.332031 639.804688 115.082031 639.804688 115.082031 L 640.972656 108.667969 L 629.300781 106.917969 C 629.300781 106.917969 629.882812 113.332031 632.21875 117.417969 C 634.550781 121.5 647.394531 142.496094 647.394531 142.496094 L 653.816406 130.832031 Z M 653.230469 130.832031"/><path fill="#FFB8B8" d="M 662.277344 177.199219 L 655.273438 198.195312 C 655.273438 198.195312 640.679688 214.527344 648.851562 214.527344 C 657.023438 214.527344 661.109375 199.945312 661.109375 199.945312 L 671.035156 178.949219 Z M 662.277344 177.199219"/><path fill="#2F2E41" d="M 639.824219 113.503906 C 649.171875 109.757812 658.390625 108.960938 667.367188 113.503906 L 667.367188 105.957031 C 667.367188 105.632812 667.335938 105.3125 667.273438 104.996094 C 667.210938 104.679688 667.117188 104.375 666.996094 104.074219 C 666.871094 103.777344 666.71875 103.492188 666.539062 103.226562 C 666.359375 102.957031 666.15625 102.707031 665.929688 102.480469 C 665.699219 102.253906 665.449219 102.046875 665.183594 101.867188 C 664.914062 101.691406 664.628906 101.539062 664.332031 101.414062 C 664.035156 101.292969 663.726562 101.199219 663.410156 101.136719 C 663.09375 101.070312 662.773438 101.039062 662.449219 101.039062 L 643.710938 101.039062 C 643.195312 101.039062 642.699219 101.140625 642.222656 101.335938 C 641.746094 101.535156 641.324219 101.8125 640.960938 102.179688 C 640.597656 102.542969 640.316406 102.960938 640.117188 103.4375 C 639.921875 103.914062 639.824219 104.410156 639.824219 104.925781 Z M 639.824219 113.503906"/><path fill="#F50000" d="M 669.574219 129.664062 C 669.574219 129.664062 674.902344 125.15625 677.78125 130.328125 C 680.664062 135.496094 678.914062 157.660156 678.332031 160.578125 C 677.746094 163.492188 673.660156 181.574219 673.660156 181.574219 L 659.652344 178.65625 C 659.652344 178.65625 658.484375 170.492188 661.988281 171.074219 Z M 669.574219 129.664062"/><path fill="#2F2E41" d="M 675.386719 124.652344 C 672.75 123.207031 671.523438 119.960938 671.4375 116.957031 C 671.347656 113.957031 672.078125 110.984375 672.132812 107.980469 C 672.164062 107.363281 672.113281 106.753906 671.980469 106.148438 C 671.757812 105.398438 671.421875 104.703125 670.972656 104.066406 C 667.542969 98.816406 661.585938 95.128906 655.3125 95.070312 C 654.398438 95.058594 653.515625 95.21875 652.664062 95.554688 C 652.015625 95.816406 651.800781 95.785156 651.675781 96.578125 C 650.144531 96.074219 648.625 96.121094 647.128906 96.722656 C 645.679688 97.3125 644.355469 98.101562 643.148438 99.09375 C 642.433594 99.621094 641.761719 100.203125 641.136719 100.832031 C 637.820312 104.265625 637.054688 109.554688 638.015625 114.230469 C 638.328125 115.746094 636.832031 117.214844 635.589844 118.148438 C 634.351562 119.082031 632.917969 119.9375 632.308594 121.363281 C 631.722656 122.738281 632.046875 124.308594 631.929688 125.792969 C 631.863281 126.496094 631.699219 127.175781 631.445312 127.835938 C 631.1875 128.492188 630.84375 129.101562 630.417969 129.664062 C 629.992188 130.226562 629.496094 130.722656 628.929688 131.144531 C 628.363281 131.570312 627.75 131.90625 627.089844 132.160156 C 627.367188 132.488281 627.703125 132.722656 628.109375 132.863281 C 628.511719 133.003906 628.921875 133.035156 629.34375 132.949219 C 630.214844 132.765625 630.996094 132.394531 631.6875 131.835938 C 632.972656 130.882812 634.058594 129.746094 634.953125 128.425781 C 635.84375 127.101562 636.492188 125.667969 636.890625 124.121094 C 637.253906 125.777344 637.113281 127.484375 637.101562 129.179688 C 637.132812 131.089844 636.789062 132.929688 636.074219 134.703125 C 635.714844 135.582031 635.214844 136.375 634.574219 137.082031 C 633.933594 137.785156 633.191406 138.359375 632.347656 138.800781 C 633.976562 139.597656 635.769531 139.019531 637.144531 137.847656 C 638.523438 136.671875 639.339844 134.96875 639.90625 133.25 C 640.839844 130.425781 641.207031 127.527344 641.011719 124.558594 C 641.769531 125.828125 642.28125 127.195312 642.546875 128.648438 C 642.816406 130.105469 642.824219 131.5625 642.570312 133.019531 C 642.304688 134.507812 641.796875 135.902344 641.042969 137.210938 C 640.285156 138.519531 639.332031 139.664062 638.179688 140.636719 C 642.261719 140.601562 646.109375 139.632812 649.726562 137.730469 C 650.65625 137.308594 651.445312 136.703125 652.09375 135.910156 C 653.238281 134.320312 652.96875 132.152344 652.644531 130.222656 C 652.390625 128.695312 654.300781 126.484375 653.207031 125.390625 C 652.871094 125.054688 652.464844 124.882812 651.992188 124.867188 C 648.660156 124.546875 645.574219 122.875 643.796875 120.039062 C 642.550781 118.054688 641.722656 115.785156 641.722656 113.664062 C 641.722656 113.25 641.746094 112.832031 641.792969 112.421875 C 641.835938 112.007812 641.902344 111.597656 641.992188 111.1875 C 642.082031 110.78125 642.191406 110.382812 642.324219 109.988281 C 642.457031 109.59375 642.609375 109.207031 642.785156 108.828125 C 642.957031 108.449219 643.152344 108.082031 643.367188 107.722656 C 643.578125 107.367188 643.8125 107.023438 644.0625 106.6875 C 644.3125 106.355469 644.582031 106.039062 644.867188 105.734375 C 645.152344 105.429688 645.453125 105.144531 645.769531 104.871094 C 646.082031 104.601562 646.414062 104.347656 646.757812 104.113281 C 647.101562 103.875 647.457031 103.660156 647.820312 103.460938 C 648.1875 103.265625 648.566406 103.085938 648.949219 102.929688 C 649.335938 102.773438 649.730469 102.636719 650.128906 102.519531 C 650.53125 102.40625 650.9375 102.3125 651.347656 102.242188 C 651.757812 102.171875 652.171875 102.121094 652.585938 102.09375 C 653 102.066406 653.417969 102.0625 653.832031 102.082031 C 654.25 102.097656 654.664062 102.140625 655.074219 102.203125 C 655.488281 102.265625 655.894531 102.347656 656.296875 102.457031 C 656.699219 102.5625 657.097656 102.6875 657.484375 102.839844 C 657.875 102.988281 658.253906 103.15625 658.625 103.347656 C 658.996094 103.535156 659.355469 103.746094 659.703125 103.972656 C 660.054688 104.203125 660.386719 104.449219 660.710938 104.710938 C 661.03125 104.976562 661.339844 105.257812 661.628906 105.554688 C 661.921875 105.851562 662.195312 106.164062 662.453125 106.492188 C 662.710938 106.820312 662.949219 107.160156 663.171875 107.511719 C 663.394531 107.863281 663.59375 108.230469 663.777344 108.601562 C 663.957031 108.976562 664.121094 109.359375 664.261719 109.753906 C 664.402344 110.144531 664.519531 110.542969 664.617188 110.945312 C 664.714844 111.351562 664.792969 111.761719 664.847656 112.171875 C 664.898438 112.585938 664.929688 113 664.941406 113.417969 C 664.949219 113.832031 664.9375 114.25 664.902344 114.664062 C 664.867188 115.078125 664.808594 115.488281 664.726562 115.898438 C 664.648438 116.308594 664.546875 116.710938 664.421875 117.109375 C 664.027344 118.394531 663.746094 119.703125 663.578125 121.039062 C 663.378906 122.585938 663.066406 124.113281 662.636719 125.613281 C 661.808594 128.492188 660.40625 131.429688 657.808594 132.933594 C 658.683594 133.410156 659.691406 133.429688 660.679688 133.539062 C 663.933594 133.898438 667.359375 133.820312 670.304688 132.390625 C 673.253906 130.960938 675.59375 127.917969 675.386719 124.652344 Z M 675.386719 124.652344"/><path d="M 665.195312 145.121094 L 662.152344 170.179688 L 662.277344 146.285156 Z M 665.195312 145.121094" fill-opacity=".2"/><path d="M 675.207031 174.710938 L 673.953125 182.449219 L 676.871094 183.613281 Z M 675.207031 174.710938" fill-opacity=".2"/></svg>